<svg xmlns="http://www.w3.org/2000/svg" viewBox="0 0 1366 768"><defs><style>.cls-1,.cls-12,.cls-3{fill:#29abe2;}.cls-2,.cls-5{fill:#fdcb4f;}.cls-2,.cls-3,.cls-9{stroke:#010101;stroke-miterlimit:10;}.cls-2{stroke-width:8px;}.cls-3{stroke-width:6px;}.cls-4{fill:#ffcc4d;}.cls-6{fill:#010100;}.cls-7{fill:#010101;}.cls-8{fill:#fdcb4e;}.cls-9{fill:#fff;stroke-width:5px;}.cls-10,.cls-12{font-size:42.19px;font-family:Gotham-UltraItalic, Gotham;font-style:italic;}.cls-11{letter-spacing:-0.09em;}</style></defs><title>background</title><g id="Calque_4" data-name="Calque 4"><rect class="cls-1" width="1366" height="768"/><rect class="cls-2" y="251.16" width="1366" height="516.84"/><path class="cls-3" d="M885.05,272.61C812,317.5,714.54,352.65,697,446.9S650.42,603.46,573.05,611.45,422.2,707.29,417.4,768H775.25c-68.69-108.62-36.74-142.17-4.79-220.45S756.08,424.94,802.41,384,925.59,272.61,925.59,272.61Z"/><rect class="cls-4" x="844.29" y="53.77" width="4.19" height="48.79"/><path d="M849,103.06h-5.19V53.28H849Zm-4.19-1H848V54.27h-3.19Z"/><rect x="845.89" y="53.77" width="0.99" height="48.79"/><polygon points="846.38 54.1 842.57 54.1 844.48 50.79 846.38 47.49 848.29 50.79 850.2 54.1 846.38 54.1"/><polygon class="cls-4" points="869.69 54.1 865.98 57.47 869.69 59.58 865.98 61.54 869.69 63.94 865.98 65.98 869.69 68.98 848.48 68.98 848.48 54.1 869.69 54.1"/><path d="M871.1,69.48H848V53.6h23l-4.16,3.78,3.91,2.22-3.77,2,3.7,2.4-3.79,2.08Zm-22.12-1h19.31l-3.2-2.58,3.64-2L865,61.5l3.66-1.93-3.52-2,3.27-3H849Z"/><rect class="cls-4" x="901.65" y="25.99" width="4.19" height="48.79"/><path d="M906.33,75.28h-5.18V25.49h5.18Zm-4.19-1h3.2V26.48h-3.2Z"/><rect x="903.24" y="25.99" width="0.99" height="48.79"/><polygon points="903.74 26.31 899.93 26.31 901.84 23.01 903.74 19.7 905.65 23.01 907.55 26.31 903.74 26.31"/><polygon class="cls-4" points="927.05 26.31 923.34 29.69 927.05 31.8 923.34 33.75 927.05 36.16 923.34 38.2 927.05 41.2 905.84 41.2 905.84 26.31 927.05 26.31"/><path d="M928.46,41.7H905.34V25.81h23l-4.16,3.78,3.91,2.22-3.77,2,3.7,2.39-3.79,2.09Zm-22.13-1h19.32l-3.2-2.58,3.63-2-3.72-2.41L926,31.78l-3.52-2,3.27-3H906.33Z"/><rect class="cls-4" x="957.69" y="52.1" width="4.19" height="48.79"/><path d="M962.37,101.38h-5.18V51.6h5.18Zm-4.19-1h3.2V52.59h-3.2Z"/><rect x="959.28" y="52.1" width="0.99" height="48.79"/><polygon points="959.78 52.42 955.97 52.42 957.87 49.12 959.78 45.81 961.69 49.12 963.59 52.42 959.78 52.42"/><polygon class="cls-4" points="983.09 52.42 979.38 55.79 983.09 57.91 979.38 59.86 983.09 62.26 979.38 64.31 983.09 67.31 961.87 67.31 961.87 52.42 983.09 52.42"/><path d="M984.49,67.8H961.38V51.92h23l-4.15,3.78,3.9,2.22-3.76,2,3.7,2.39-3.8,2.09Zm-22.12-1h19.31l-3.19-2.58,3.63-2-3.73-2.41,3.67-1.93-3.52-2,3.27-3H962.37Z"/><rect class="cls-5" x="876.58" y="76.85" width="53.87" height="9.83"/><path class="cls-6" d="M931.65,87.87H875.38V75.64h56.27Zm-53.87-2.4h51.47V78.05H877.78Z"/><rect class="cls-4" x="816.97" y="175.87" width="50.2" height="74.08"/><path class="cls-7" d="M868.37,251.16h-52.6V174.67h52.6Zm-50.2-2.41H866V177.07h-47.8Z"/><rect class="cls-4" x="939.48" y="175.87" width="50.2" height="74.08"/><path class="cls-7" d="M990.88,251.16h-52.6V174.67h52.6Zm-50.2-2.41h47.8V177.07h-47.8Z"/><rect class="cls-4" x="867.17" y="175.87" width="72.31" height="78.32"/><path class="cls-6" d="M940.68,255.39H866V174.67h74.71ZM868.37,253h69.91V177.07H868.37Z"/><rect class="cls-8" x="883.72" y="212.26" width="39.38" height="41.93"/><path d="M924.3,255.39H882.52V211.05H924.3ZM884.92,253h37V213.46h-37Z"/><rect class="cls-8" x="828.65" y="221.37" width="26.84" height="28.58"/><path d="M856.69,251.16H827.45v-31h29.24Zm-26.84-2.41h24.44V222.58H829.85Z"/><rect class="cls-5" x="880.35" y="86.67" width="46.44" height="89.2"/><path class="cls-6" d="M928,177.07H879.15V85.47H928Zm-46.45-2.4h44V87.87h-44Z"/><rect class="cls-5" x="830.21" y="110.28" width="33.32" height="65.58"/><path class="cls-7" d="M864.73,177.07H829v-68h35.73Zm-33.32-2.4h30.91V111.48H831.41Z"/><rect class="cls-5" x="827.29" y="104.04" width="39.12" height="6.24"/><path class="cls-6" d="M867.61,111.48H826.09v-8.64h41.52Zm-39.12-2.4h36.72v-3.84H828.49Z"/><polygon class="cls-5" points="861.98 91.76 861.98 97.9 853.27 97.9 853.27 91.76 840.21 91.76 840.21 97.9 831.5 97.9 831.5 91.76 822.51 91.76 822.51 104.04 869.46 104.04 869.46 91.76 861.98 91.76"/><path class="cls-6" d="M870.66,105.24H821.31V90.56H832.7V96.7H839V90.56h15.47V96.7h6.31V90.56h9.88Zm-46.94-2.4h44.54V93h-5.08V99.1H852.07V93H841.41V99.1H830.29V93h-6.57Z"/><polygon class="cls-5" points="924.7 64.56 924.7 70.7 913.19 70.7 913.19 64.56 895.93 64.56 895.93 70.7 884.43 70.7 884.43 64.56 872.56 64.56 872.56 76.85 934.59 76.85 934.59 64.56 924.7 64.56"/><path class="cls-6" d="M935.79,78.05H871.36V63.36h14.27V69.5h9.1V63.36h19.66V69.5h9.11V63.36h12.29Zm-62-2.41h59.61V65.77H925.9v6.14H912V65.77H897.14v6.14H883.23V65.77h-9.46Z"/><rect class="cls-5" x="943.74" y="110.28" width="33.32" height="65.58"/><path class="cls-7" d="M978.26,177.07H942.54v-68h35.72Zm-33.32-2.4h30.92V111.48H944.94Z"/><rect class="cls-5" x="940.82" y="104.04" width="39.12" height="6.24"/><path class="cls-6" d="M981.15,111.48H939.62v-8.64h41.53ZM942,109.08h36.72v-3.84H942Z"/><polygon class="cls-5" points="975.51 91.76 975.51 97.9 966.8 97.9 966.8 91.76 953.74 91.76 953.74 97.9 945.03 97.9 945.03 91.76 936.05 91.76 936.05 104.04 983 104.04 983 91.76 975.51 91.76"/><path class="cls-6" d="M984.2,105.24H934.85V90.56h11.38V96.7h6.31V90.56H968V96.7h6.31V90.56h9.89Zm-47-2.4h44.54V93h-5.07V99.1H965.6V93H954.94V99.1H943.83V93h-6.58Z"/><rect class="cls-5" x="850.16" y="262.16" width="107.35" height="9.25"/><path class="cls-6" d="M958.71,272.61H849V261H958.71Zm-107.34-2.4H956.31v-6.85H851.37Z"/><polygon class="cls-5" points="952.56 259.76 939.48 254.18 867.17 254.18 854.59 259.76 952.56 259.76"/><path class="cls-7" d="M958.44,261H848.91l18.26-8h72.56Zm-98.17-2.41h86.4l-7.44-3.16h-71.8Z"/><rect class="cls-7" x="890.47" y="86.67" width="2.4" height="89.2"/><rect class="cls-7" x="896.42" y="86.67" width="2.4" height="89.2"/><rect class="cls-7" x="902.37" y="86.67" width="2.4" height="89.2"/><rect class="cls-7" x="908.32" y="86.67" width="2.4" height="89.2"/><rect class="cls-7" x="914.27" y="86.67" width="2.4" height="89.2"/><rect class="cls-7" x="880.35" y="98.15" width="46.44" height="2.4"/><rect class="cls-7" x="880.35" y="104.49" width="46.44" height="2.4"/><rect class="cls-7" x="880.35" y="117.17" width="46.44" height="2.4"/><rect class="cls-7" x="880.35" y="123.51" width="46.44" height="2.4"/><rect class="cls-7" x="880.35" y="136.19" width="46.44" height="2.4"/><rect class="cls-7" x="880.35" y="142.53" width="46.44" height="2.4"/><rect class="cls-7" x="880.35" y="155.21" width="46.44" height="2.4"/><rect class="cls-7" x="880.35" y="161.55" width="46.44" height="2.4"/><circle class="cls-5" cx="846.38" cy="137.39" r="10.86"/><path class="cls-6" d="M846.39,149.46a12.07,12.07,0,1,1,12.06-12.06A12.08,12.08,0,0,1,846.39,149.46Zm0-21.73A9.67,9.67,0,1,0,856,137.4,9.68,9.68,0,0,0,846.39,127.73Z"/><circle class="cls-6" cx="846.38" cy="137.39" r="7.68"/><circle class="cls-5" cx="961.38" cy="137.39" r="10.86"/><path class="cls-6" d="M961.38,149.46a12.07,12.07,0,1,1,12.06-12.06A12.08,12.08,0,0,1,961.38,149.46Zm0-21.73A9.67,9.67,0,1,0,971,137.4,9.68,9.68,0,0,0,961.38,127.73Z"/><circle class="cls-6" cx="961.38" cy="137.39" r="7.68"/><rect x="832.76" y="230.13" width="18.62" height="19.83"/><rect class="cls-8" x="951.16" y="221.37" width="26.84" height="28.58"/><path d="M979.2,251.16H950v-31H979.2Zm-26.84-2.41H976.8V222.58H952.36Z"/><rect x="955.27" y="230.13" width="18.62" height="19.83"/><rect x="894.02" y="212.26" width="18.62" height="41.93"/><rect class="cls-5" x="877.84" y="185.48" width="14.41" height="14.41"/><path class="cls-7" d="M893.46,201.1H876.64V184.28h16.82ZM879,198.69h12v-12H879Z"/><rect class="cls-7" x="881.1" y="188.74" width="7.89" height="7.89"/><rect class="cls-5" x="897.03" y="185.48" width="14.41" height="14.41"/><path class="cls-7" d="M912.65,201.1H895.83V184.28h16.82Zm-14.42-2.41h12v-12h-12Z"/><rect class="cls-7" x="900.29" y="188.74" width="7.89" height="7.89"/><rect class="cls-5" x="916.22" y="185.48" width="14.41" height="14.41"/><path class="cls-7" d="M931.84,201.1H915V184.28h16.82Zm-14.41-2.41h12v-12h-12Z"/><rect class="cls-7" x="919.49" y="188.74" width="7.89" height="7.89"/><rect class="cls-6" x="887.79" y="212.26" width="2.4" height="41.93"/><rect class="cls-6" x="916.24" y="212.26" width="2.4" height="41.93"/><polygon class="cls-2" points="576.59 539.39 119.23 539.39 145.93 74.28 604.53 74.28 576.59 539.39"/><path class="cls-9" d="M687.86,123c0-13.73-14.07-24.87-31.42-24.87-10.83,0-20.38,4.34-26,10.93-5.65-6.59-15.2-10.93-26-10.93-15.83,0-28.92,9.27-31.1,21.33a39.34,39.34,0,0,0-9.33-1.12c-17.35,0-31.42,11.14-31.42,24.88S546.6,168.09,564,168.09a39.41,39.41,0,0,0,8.31-.89c4.92,8.66,15.9,14.69,28.67,14.69a36.8,36.8,0,0,0,19.44-5.34c5.7,6.3,15,10.4,25.54,10.4,13.52,0,25-6.76,29.48-16.24a38.49,38.49,0,0,0,12.47,2c17.35,0,31.42-11.14,31.42-24.88S705.21,123,687.86,123Z"/><path class="cls-9" d="M171.09,51.17c0-13.74-14.07-24.88-31.42-24.88-10.83,0-20.38,4.34-26,10.94-5.65-6.6-15.2-10.94-26-10.94-15.84,0-28.93,9.27-31.1,21.33a39.41,39.41,0,0,0-9.33-1.11c-17.36,0-31.43,11.13-31.43,24.87S29.83,96.26,47.19,96.26a38.9,38.9,0,0,0,8.31-.89c4.91,8.66,15.9,14.7,28.67,14.7a36.8,36.8,0,0,0,19.44-5.34c5.7,6.29,15,10.39,25.54,10.39,13.51,0,25-6.76,29.47-16.24a38.49,38.49,0,0,0,12.47,2c17.36,0,31.42-11.14,31.42-24.88S188.45,51.17,171.09,51.17Z"/><path class="cls-9" d="M1257.42,83.32c0-16.76-17.16-30.35-38.34-30.35-13.21,0-24.86,5.29-31.75,13.34-6.9-8.05-18.55-13.34-31.76-13.34-19.32,0-35.29,11.31-38,26a47.36,47.36,0,0,0-11.38-1.37c-21.18,0-38.34,13.59-38.34,30.36s17.16,30.35,38.34,30.35a47.89,47.89,0,0,0,10.14-1.08c6,10.57,19.4,17.93,35,17.93a44.86,44.86,0,0,0,23.72-6.52c7,7.68,18.32,12.68,31.16,12.68,16.5,0,30.56-8.24,36-19.81a46.91,46.91,0,0,0,15.21,2.49c21.18,0,38.35-13.59,38.35-30.36S1278.6,83.32,1257.42,83.32Z"/><polygon class="cls-2" points="1287.38 727.51 1062.55 727.51 1075.67 660.22 1301.11 660.22 1287.38 727.51"/><text class="cls-10" transform="translate(1112.47 709.1)">PL<tspan class="cls-11" x="53.75" y="0">A</tspan><tspan x="82.82" y="0">Y !</tspan></text><text class="cls-12" transform="translate(1112.47 706.15)">PL<tspan class="cls-11" x="53.75" y="0">A</tspan><tspan x="82.82" y="0">Y !</tspan></text></g></svg>