<svg xmlns="http://www.w3.org/2000/svg" xmlns:xlink="http://www.w3.org/1999/xlink" viewBox="0 0 1366 768"><defs><style>.cls-1,.cls-3{fill:none;}.cls-2{fill:#ffcc4d;}.cls-14,.cls-3{stroke:#000;}.cls-10,.cls-14,.cls-3{stroke-miterlimit:10;}.cls-10,.cls-4{fill:#fdcb4f;}.cls-5{fill:#010100;}.cls-6{fill:#010101;}.cls-7{fill:#fdcb4e;}.cls-13,.cls-8{fill:#29abe2;}.cls-9{fill:url(#Nouveau_motif);}.cls-10{stroke:#010101;stroke-width:8px;}.cls-11,.cls-13{font-size:66.88px;font-family:Gotham-UltraItalic, Gotham;font-style:italic;}.cls-12{letter-spacing:-0.09em;}</style><pattern id="Nouveau_motif" data-name="Nouveau motif" width="94.48" height="136.45" patternUnits="userSpaceOnUse" viewBox="0 0 94.48 136.45"><rect class="cls-1" width="94.48" height="136.45"/><rect class="cls-2" x="15.39" y="18.38" width="2.26" height="26.32"/><path d="M17.92,18.11h-2.8V45h2.8Zm-2.26.54h1.72V44.44H15.66Z"/><path class="cls-3" d="M15,41.67"/><rect x="16.25" y="18.38" width="0.54" height="26.32"/><polygon points="16.52 18.55 14.46 18.55 15.49 16.77 16.52 14.99 17.55 16.77 18.58 18.55 16.52 18.55"/><polygon class="cls-2" points="29.09 18.55 27.09 20.38 29.09 21.52 27.09 22.57 29.09 23.87 27.09 24.97 29.09 26.59 17.65 26.59 17.65 18.55 29.09 18.55"/><path d="M27.57,25l2.05-1.12-2-1.3,2-1.07-2.11-1.19,2.25-2H17.38v8.57H29.85Zm-9.65-6.19H28.4l-1.76,1.61,1.9,1.08-2,1,2,1.3-2,1.08,1.73,1.39H17.92Z"/><rect class="cls-2" x="46.33" y="3.39" width="2.26" height="26.32"/><path d="M48.86,3.12H46.07V30h2.79Zm-2.26.54h1.73V29.45H46.6Z"/><path class="cls-3" d="M46,26.68"/><rect x="47.2" y="3.39" width="0.54" height="26.32"/><polygon points="47.46 3.56 45.41 3.56 46.44 1.78 47.46 0 48.49 1.78 49.52 3.56 47.46 3.56"/><polygon class="cls-2" points="60.04 3.56 58.04 5.38 60.04 6.52 58.04 7.58 60.04 8.88 58.04 9.98 60.04 11.6 48.59 11.6 48.59 3.56 60.04 3.56"/><path d="M58.52,10l2-1.13-2-1.29,2-1.07-2.11-1.2,2.24-2H48.33v8.56H60.8ZM48.86,3.83H59.35L57.58,5.44l1.9,1.08-2,1,2,1.3-2,1.08,1.72,1.39H48.86Z"/><rect class="cls-2" x="76.57" y="17.48" width="2.26" height="26.32"/><path d="M79.1,17.21H76.3V44.07h2.8Zm-2.26.53h1.72V43.53H76.84Z"/><path class="cls-3" d="M76.19,40.76"/><rect x="77.43" y="17.48" width="0.54" height="26.32"/><polygon points="77.7 17.65 75.64 17.65 76.67 15.87 77.7 14.09 78.73 15.87 79.76 17.65 77.7 17.65"/><polygon class="cls-2" points="90.28 17.65 88.27 19.47 90.28 20.61 88.27 21.67 90.28 22.96 88.27 24.06 90.28 25.68 78.83 25.68 78.83 17.65 90.28 17.65"/><path d="M88.75,24.11l2-1.13-2-1.29,2-1.07-2.1-1.2,2.24-2H78.56V26H91ZM79.1,17.92H89.58l-1.76,1.6,1.9,1.08-2,1,2,1.3-2,1.08,1.73,1.39H79.1Z"/><rect class="cls-4" x="32.81" y="30.83" width="29.06" height="5.3"/><path class="cls-5" d="M62.52,30.18H32.16v6.6H62.52Zm-29.06,1.3H61.22v4H33.46Z"/><rect class="cls-2" x="0.65" y="84.26" width="27.09" height="39.97"/><path class="cls-6" d="M28.38,83.61H0v41.26H28.38ZM1.3,84.9H27.09v38.68H1.3Z"/><rect class="cls-2" x="66.75" y="84.26" width="27.09" height="39.97"/><path class="cls-6" d="M94.48,83.61H66.1v41.26H94.48ZM67.39,84.9H93.18v38.68H67.39Z"/><rect class="cls-2" x="27.73" y="84.26" width="39.01" height="42.25"/><path class="cls-5" d="M67.39,83.61H27.09v43.55h40.3Zm-39,1.29H66.1v41H28.38Z"/><rect class="cls-7" x="36.66" y="103.89" width="21.24" height="22.62"/><path d="M58.55,103.24H36v23.92H58.55Zm-21.24,1.3H57.26v21.32H37.31Z"/><rect class="cls-7" x="6.95" y="108.81" width="14.48" height="15.42"/><path d="M22.08,108.16H6.3v16.71H22.08ZM7.6,109.46H20.78v14.12H7.6Z"/><rect class="cls-4" x="34.85" y="36.13" width="25.06" height="48.12"/><path class="cls-5" d="M60.55,35.48H34.2V84.9H60.55Zm-25.06,1.3H59.25V83.61H35.49Z"/><rect class="cls-4" x="7.79" y="48.87" width="17.98" height="35.39"/><path class="cls-6" d="M26.41,48.22H7.14V84.9H26.41Zm-18,1.3H25.12V83.61H8.44Z"/><rect class="cls-4" x="6.22" y="45.5" width="21.11" height="3.37"/><path class="cls-5" d="M28,44.85H5.57v4.67H28ZM6.86,46.15H26.68v2.07H6.86Z"/><polygon class="cls-4" points="24.93 38.88 24.93 42.19 20.23 42.19 20.23 38.88 13.18 38.88 13.18 42.19 8.48 42.19 8.48 38.88 3.64 38.88 3.64 45.5 28.97 45.5 28.97 38.88 24.93 38.88"/><path class="cls-5" d="M29.62,38.23H24.28v3.31h-3.4V38.23H12.54v3.31H9.13V38.23H3v7.92H29.62ZM4.29,39.52H7.84v3.32h6V39.52h5.75v3.32h6V39.52h2.74v5.33h-24Z"/><polygon class="cls-4" points="58.77 24.2 58.77 27.52 52.56 27.52 52.56 24.2 43.25 24.2 43.25 27.52 37.04 27.52 37.04 24.2 30.64 24.2 30.64 30.83 64.11 30.83 64.11 24.2 58.77 24.2"/><path class="cls-5" d="M64.75,23.55H58.12v3.32H53.21V23.55H42.6v3.32H37.69V23.55H30v7.93H64.75Zm-33.46,1.3H36.4v3.31h7.5V24.85h8v3.31h7.51V24.85h4v5.33H31.29Z"/><rect class="cls-4" x="69.05" y="48.87" width="17.98" height="35.39"/><path class="cls-6" d="M87.67,48.22H68.4V84.9H87.67Zm-18,1.3H86.37V83.61H69.69Z"/><rect class="cls-4" x="67.47" y="45.5" width="21.11" height="3.37"/><path class="cls-5" d="M89.23,44.85H66.82v4.67H89.23Zm-21.11,1.3H87.93v2.07H68.12Z"/><polygon class="cls-4" points="86.19 38.88 86.19 42.19 81.49 42.19 81.49 38.88 74.44 38.88 74.44 42.19 69.74 42.19 69.74 38.88 64.89 38.88 64.89 45.5 90.22 45.5 90.22 38.88 86.19 38.88"/><path class="cls-5" d="M90.87,38.23H85.54v3.31h-3.4V38.23H73.79v3.31h-3.4V38.23H64.25v7.92H90.87ZM65.54,39.52h3.55v3.32h6V39.52h5.75v3.32h6V39.52h2.74v5.33h-24Z"/><rect class="cls-4" x="18.56" y="130.81" width="57.92" height="4.99"/><path class="cls-5" d="M77.12,130.16H17.91v6.29H77.12Zm-57.91,1.3H75.83v3.69H19.21Z"/><polygon class="cls-4" points="73.8 129.51 66.75 126.51 27.73 126.51 20.95 129.51 73.8 129.51"/><path class="cls-6" d="M66.88,125.86H27.73l-9.85,4.3H77Zm-39,1.3H66.61l4,1.71H24Z"/><line class="cls-4" x1="40.95" y1="36.13" x2="40.95" y2="84.26"/><rect class="cls-6" x="40.3" y="36.13" width="1.3" height="48.12"/><line class="cls-4" x1="44.16" y1="36.13" x2="44.16" y2="84.26"/><rect class="cls-6" x="43.52" y="36.13" width="1.3" height="48.12"/><line class="cls-4" x1="47.37" y1="36.13" x2="47.37" y2="84.26"/><rect class="cls-6" x="46.73" y="36.13" width="1.3" height="48.12"/><line class="cls-4" x1="50.58" y1="36.13" x2="50.58" y2="84.26"/><rect class="cls-6" x="49.94" y="36.13" width="1.3" height="48.12"/><line class="cls-4" x1="53.79" y1="36.13" x2="53.79" y2="84.26"/><rect class="cls-6" x="53.15" y="36.13" width="1.3" height="48.12"/><line class="cls-4" x1="34.85" y1="42.97" x2="59.9" y2="42.97"/><rect class="cls-6" x="34.84" y="42.32" width="25.06" height="1.3"/><line class="cls-4" x1="34.85" y1="46.39" x2="59.9" y2="46.39"/><rect class="cls-6" x="34.84" y="45.75" width="25.06" height="1.3"/><line class="cls-4" x1="34.85" y1="53.24" x2="59.9" y2="53.24"/><rect class="cls-6" x="34.84" y="52.59" width="25.06" height="1.3"/><line class="cls-4" x1="34.85" y1="56.66" x2="59.9" y2="56.66"/><rect class="cls-6" x="34.84" y="56.01" width="25.06" height="1.3"/><line class="cls-4" x1="34.85" y1="63.5" x2="59.9" y2="63.5"/><rect class="cls-6" x="34.84" y="62.85" width="25.06" height="1.3"/><line class="cls-4" x1="34.85" y1="66.92" x2="59.9" y2="66.92"/><rect class="cls-6" x="34.84" y="66.27" width="25.06" height="1.3"/><line class="cls-4" x1="34.85" y1="73.76" x2="59.9" y2="73.76"/><rect class="cls-6" x="34.84" y="73.11" width="25.06" height="1.3"/><line class="cls-4" x1="34.85" y1="77.18" x2="59.9" y2="77.18"/><rect class="cls-6" x="34.84" y="76.53" width="25.06" height="1.3"/><circle class="cls-4" cx="16.52" cy="63.5" r="5.86"/><path class="cls-5" d="M23,63.5A6.51,6.51,0,1,0,16.52,70,6.52,6.52,0,0,0,23,63.5Zm-1.3,0a5.21,5.21,0,1,1-5.21-5.21A5.22,5.22,0,0,1,21.73,63.5Z"/><circle class="cls-5" cx="16.52" cy="63.5" r="4.14"/><circle class="cls-4" cx="78.56" cy="63.5" r="5.86"/><path class="cls-5" d="M85.07,63.5A6.51,6.51,0,1,0,78.56,70,6.52,6.52,0,0,0,85.07,63.5Zm-1.3,0a5.21,5.21,0,1,1-5.21-5.21A5.22,5.22,0,0,1,83.77,63.5Z"/><circle class="cls-5" cx="78.56" cy="63.5" r="4.14"/><rect x="9.17" y="113.53" width="10.05" height="10.7"/><rect class="cls-7" x="73.05" y="108.81" width="14.48" height="15.42"/><path d="M88.18,108.16H72.4v16.71H88.18Zm-14.48,1.3H86.88v14.12H73.7Z"/><rect x="75.27" y="113.53" width="10.05" height="10.7"/><rect x="42.22" y="103.89" width="10.05" height="22.62"/><rect class="cls-4" x="33.49" y="89.44" width="7.78" height="7.78"/><path class="cls-6" d="M41.91,88.79H32.84v9.08h9.07Zm-7.77,1.3h6.48v6.48H34.14Z"/><rect class="cls-6" x="35.25" y="91.2" width="4.26" height="4.26"/><rect class="cls-4" x="43.84" y="89.44" width="7.78" height="7.78"/><path class="cls-6" d="M52.27,88.79H43.2v9.08h9.07Zm-7.78,1.3H51v6.48H44.49Z"/><rect class="cls-6" x="45.6" y="91.2" width="4.26" height="4.26"/><rect class="cls-4" x="54.2" y="89.44" width="7.78" height="7.78"/><path class="cls-6" d="M62.62,88.79H53.55v9.08h9.07Zm-7.77,1.3h6.48v6.48H54.85Z"/><rect class="cls-6" x="55.96" y="91.2" width="4.26" height="4.26"/><line x1="39.51" y1="103.89" x2="39.51" y2="126.51"/><rect class="cls-5" x="38.86" y="103.89" width="1.3" height="22.62"/><line x1="54.85" y1="103.89" x2="54.85" y2="126.51"/><rect class="cls-5" x="54.21" y="103.89" width="1.3" height="22.62"/></pattern></defs><title>background</title><g id="Calque_4" data-name="Calque 4"><rect class="cls-8" y="0.16" width="1366" height="768"/><rect class="cls-9" y="583.48" width="1366" height="184.68"/><polygon class="cls-10" points="850.3 490.82 493.93 490.82 514.73 384.16 872.07 384.16 850.3 490.82"/><text class="cls-11" transform="translate(573.05 461.63)">PL<tspan class="cls-12" x="85.2" y="0">A</tspan><tspan x="131.28" y="0">Y !</tspan></text><text class="cls-13" transform="translate(573.05 456.97)">PL<tspan class="cls-12" x="85.2" y="0">A</tspan><tspan x="131.28" y="0">Y !</tspan></text><path d="M113,162.72H94.5L99.26,145h58l-4.75,17.76H134l-12.11,45.05h-21Z"/><path d="M161.8,145h21l-6,22.16H196L202,145h21l-16.87,62.81h-21l6-22.52h-19.2l-6,22.52h-21Z"/><path d="M229.81,145h53.57l-4.67,17.22H245.78l-1.7,6.37h30.68l-4,15.17H240l-1.89,6.82h33.38L267,207.77h-54Z"/><path class="cls-2" d="M113,156.46H94.5l4.76-17.77h58l-4.75,17.77H134l-12.11,45h-21Z"/><path class="cls-2" d="M161.8,138.69h21l-6,22.16H196l6-22.16h21L206.12,201.5h-21l6-22.52h-19.2l-6,22.52h-21Z"/><path class="cls-2" d="M229.81,138.69h53.57l-4.67,17.23H245.78l-1.7,6.37h30.68l-4,15.16H240l-1.89,6.82h33.38L267,201.5h-54Z"/><path d="M302.31,181.12c0-20.55,16.15-37.51,41.45-37.51,11.85,0,22,5.11,26.29,10.41L357,167.48a22,22,0,0,0-14.54-5.65c-11.93,0-19,8.16-19,18.3,0,7.81,5.66,11.67,12.21,11.67a13.54,13.54,0,0,0,5.47-1l2.06-6.73H332.81l3.41-13.46h30.24l-9,32a49.11,49.11,0,0,1-24.14,6.46C317.74,209.11,302.31,200.86,302.31,181.12Z"/><path d="M379.74,145h24.49c11.58,0,18.94,2.51,23.16,6.73,3.5,3.5,4.93,8.16,4.93,13.1,0,9.78-5.11,18.21-17.5,22.07l8.71,20.91H400.91l-7-18h-5.21l-4.84,18h-21Zm20.55,29.88c7,0,10.67-3.23,10.67-7.18a4.57,4.57,0,0,0-1.34-3.32c-1.17-1.17-3.23-1.8-6.19-1.8H396l-3.32,12.3Z"/><path d="M443.71,145h53.57l-4.66,17.22H459.68l-1.7,6.37h30.69l-4,15.17H453.94l-1.88,6.82h33.38l-4.58,17.23h-54Z"/><path d="M525.72,144.51h20.82l9.51,63.26H533.71l-1.08-8.44h-22l-5.48,8.44H482.29Zm5.75,39.93-1.71-15.26L520,184.44Z"/><path d="M577.67,162.72H559.19L563.94,145h58l-4.75,17.76H598.67l-12.11,45.05h-21Z"/><path class="cls-2" d="M302.3,174.85c0-20.55,16.16-37.51,41.46-37.51,11.84,0,22,5.12,26.29,10.41L357,161.21a22,22,0,0,0-14.54-5.65c-11.93,0-19,8.16-19,18.3,0,7.81,5.65,11.67,12.21,11.67a13.54,13.54,0,0,0,5.47-1l2.06-6.73H332.81l3.41-13.46h30.24l-9,32a49.11,49.11,0,0,1-24.14,6.46C317.74,202.85,302.3,194.59,302.3,174.85Z"/><path class="cls-2" d="M379.74,138.69h24.49c11.58,0,18.94,2.51,23.15,6.73,3.5,3.5,4.94,8.17,4.94,13.1,0,9.78-5.11,18.22-17.5,22.07l8.71,20.91H400.91l-7-17.94h-5.2l-4.85,17.94h-21Zm20.55,29.88c7,0,10.67-3.23,10.67-7.18a4.61,4.61,0,0,0-1.34-3.32c-1.17-1.16-3.23-1.79-6.19-1.79H396l-3.32,12.29Z"/><path class="cls-2" d="M443.71,138.69h53.57l-4.66,17.23H459.68l-1.7,6.37h30.69l-4,15.16H453.94l-1.88,6.82h33.38l-4.58,17.23h-54Z"/><path class="cls-2" d="M525.72,138.24h20.82l9.51,63.26H533.71l-1.08-8.43h-22l-5.48,8.43H482.29Zm5.74,39.93-1.7-15.25L520,178.17Z"/><path class="cls-2" d="M577.67,156.46H559.19l4.75-17.77h58l-4.76,17.77H598.67l-12.11,45h-21Z"/><path d="M791.22,181.57c0-17.14,13.19-38,40.29-38,13.55,0,23.15,7.18,25.75,18.3l-18.75,8.17c-1.35-5.11-5-7.63-9.78-7.63-9.42,0-15.53,8.62-15.53,17.23,0,6.91,4.31,10.77,9.87,10.77,4.85,0,8.8-2.33,12.21-6.55l14.53,11.48c-6.28,8.26-15.43,13.73-28.8,13.73C803.42,209.11,791.22,198.44,791.22,181.57Z"/><path d="M867,145h24.49c11.58,0,18.94,2.51,23.16,6.73,3.5,3.5,4.93,8.16,4.93,13.1,0,9.78-5.11,18.21-17.5,22.07l8.71,20.91H888.21l-7-18H876l-4.84,18h-21Zm20.55,29.88c7,0,10.68-3.23,10.68-7.18a4.58,4.58,0,0,0-1.35-3.32c-1.17-1.17-3.23-1.8-6.19-1.8h-7.45L880,174.84Z"/><path d="M921.59,180.58a37.07,37.07,0,0,1,37-36.88c18.48,0,31.23,12.38,31.23,28.44a37.07,37.07,0,0,1-37,36.88C934.33,209,921.59,196.64,921.59,180.58ZM968.7,174c0-6.64-4-11.85-11.58-11.85-8.79,0-14.44,8.62-14.44,16.51,0,6.64,4,11.85,11.57,11.85C963.05,190.54,968.7,181.92,968.7,174Z"/><path d="M984.49,197.63l12-14.36c7.18,6,14.54,8.88,21.18,8.88,2.69,0,4.58-1,4.58-2.78,0-2-1.17-2.6-10.32-6-11.67-4.31-17.14-8.43-17.14-17.68,0-12.11,11.12-22,28.26-22,11.22,0,21.18,3.59,28,9.42l-12,14.36c-4.76-3.86-11.49-7-18.13-7-2.69,0-4.58.72-4.58,2.51s1.35,2.24,10.05,5.48c10.68,3.94,17.5,8.43,17.5,18,0,12.65-10.41,22.52-28.44,22.52C1003,209,992.12,204.54,984.49,197.63Z"/><path d="M1043.08,197.63l12-14.36c7.18,6,14.54,8.88,21.18,8.88,2.69,0,4.58-1,4.58-2.78,0-2-1.17-2.6-10.32-6-11.67-4.31-17.14-8.43-17.14-17.68,0-12.11,11.12-22,28.26-22,11.22,0,21.18,3.59,28,9.42l-12,14.36c-4.76-3.86-11.49-7-18.13-7-2.69,0-4.58.72-4.58,2.51s1.35,2.24,10,5.48c10.68,3.94,17.5,8.43,17.5,18,0,12.65-10.41,22.52-28.44,22.52C1061.57,209,1050.71,204.54,1043.08,197.63Z"/><path d="M1118.81,145h21l-16.87,62.81h-21Z"/><path d="M1146.8,145h19.66l14.26,30,8.08-30h20.81l-16.86,62.81h-18.67l-14.89-31.23-8.44,31.23h-20.82Z"/><path d="M1205.75,181.12c0-20.55,16.15-37.51,41.46-37.51,11.84,0,22,5.11,26.29,10.41l-13.1,13.46a22,22,0,0,0-14.54-5.65c-11.93,0-19,8.16-19,18.3,0,7.81,5.65,11.67,12.2,11.67a13.56,13.56,0,0,0,5.48-1l2.06-6.73h-10.32l3.41-13.46h30.24l-9,32a49.11,49.11,0,0,1-24.14,6.46C1221.19,209.11,1205.75,200.86,1205.75,181.12Z"/><path class="cls-2" d="M791.22,175.3c0-17.14,13.19-38,40.29-38,13.55,0,23.15,7.18,25.75,18.31l-18.75,8.16c-1.35-5.11-5-7.62-9.78-7.62-9.43,0-15.53,8.61-15.53,17.23,0,6.9,4.31,10.76,9.87,10.76,4.85,0,8.8-2.33,12.21-6.55l14.53,11.49c-6.28,8.25-15.43,13.73-28.8,13.73C803.42,202.85,791.22,192.17,791.22,175.3Z"/><path class="cls-2" d="M867,138.69h24.49c11.58,0,18.94,2.51,23.16,6.73,3.49,3.5,4.93,8.17,4.93,13.1,0,9.78-5.11,18.22-17.5,22.07l8.71,20.91H888.21l-7-17.94H876l-4.84,17.94h-21Zm20.55,29.88c7,0,10.67-3.23,10.67-7.18a4.61,4.61,0,0,0-1.34-3.32c-1.17-1.16-3.23-1.79-6.19-1.79h-7.45L880,168.57Z"/><path class="cls-2" d="M921.59,174.31a37.07,37.07,0,0,1,37-36.88c18.48,0,31.23,12.39,31.23,28.45a37.07,37.07,0,0,1-37,36.88C934.33,202.76,921.59,190.38,921.59,174.31Zm47.11-6.55c0-6.64-4-11.84-11.58-11.84-8.79,0-14.44,8.61-14.44,16.51,0,6.64,4,11.84,11.57,11.84C963.05,184.27,968.7,175.66,968.7,167.76Z"/><path class="cls-2" d="M984.49,191.36l12-14.36c7.18,6,14.54,8.89,21.18,8.89,2.69,0,4.58-1,4.58-2.78,0-2-1.17-2.61-10.32-6-11.67-4.3-17.14-8.43-17.14-17.67,0-12.12,11.12-22,28.26-22,11.22,0,21.18,3.59,28,9.43l-12,14.35c-4.76-3.86-11.49-7-18.13-7-2.69,0-4.58.72-4.58,2.52s1.35,2.24,10.05,5.47c10.68,4,17.5,8.43,17.5,18,0,12.65-10.41,22.52-28.44,22.52C1003,202.76,992.12,198.27,984.49,191.36Z"/><path class="cls-2" d="M1043.08,191.36l12-14.36c7.18,6,14.54,8.89,21.18,8.89,2.69,0,4.58-1,4.58-2.78,0-2-1.17-2.61-10.32-6-11.67-4.3-17.14-8.43-17.14-17.67,0-12.12,11.12-22,28.26-22,11.22,0,21.18,3.59,28,9.43l-12,14.35c-4.76-3.86-11.49-7-18.13-7-2.69,0-4.58.72-4.58,2.52s1.35,2.24,10,5.47c10.68,4,17.5,8.43,17.5,18,0,12.65-10.41,22.52-28.44,22.52C1061.56,202.76,1050.71,198.27,1043.08,191.36Z"/><path class="cls-2" d="M1118.81,138.69h21l-16.87,62.81h-21Z"/><path class="cls-2" d="M1146.8,138.69h19.65l14.27,30,8.08-30h20.81l-16.87,62.81h-18.66l-14.89-31.22-8.44,31.22h-20.82Z"/><path class="cls-2" d="M1205.75,174.85c0-20.55,16.15-37.51,41.46-37.51,11.84,0,22,5.12,26.29,10.41l-13.1,13.46a22,22,0,0,0-14.54-5.65c-11.93,0-19,8.16-19,18.3,0,7.81,5.65,11.67,12.2,11.67a13.6,13.6,0,0,0,5.48-1l2.06-6.73h-10.32l3.41-13.46h30.24l-9,32a49.11,49.11,0,0,1-24.14,6.46C1221.19,202.85,1205.75,194.59,1205.75,174.85Z"/><rect class="cls-2" x="725.14" y="169.36" width="9.42" height="47.47" transform="translate(52 525.49) rotate(-40.94)"/><path d="M750.11,208.06l-8.31,7.21-32.21-37.14,8.3-7.2Zm-8.23,4.9,5.93-5.14-30-34.59-5.93,5.15Z"/><rect x="729.06" y="169.36" width="1.57" height="47.47" transform="translate(52 525.49) rotate(-40.94)"/><path class="cls-14" d="M719.61,170.52l-10.67,9.26-3.81-4.4,10.67-9.25ZM709,177.47l8.3-7.2-1.6-1.84-8.3,7.2Z"/><rect x="701.19" y="178.25" width="7.34" height="2.45" transform="translate(54.81 505.78) rotate(-40.94)"/><rect x="716.23" y="165.21" width="7.34" height="2.45" transform="translate(67.03 512.44) rotate(-40.94)"/><polygon points="708.02 175.12 662.36 122.48 651.45 102.72 669.47 116.31 715.13 168.95 708.02 175.12"/><path class="cls-2" d="M681.09,214.94c15.69-6.72,50-18.28,66.1-62.08-5.36,4.49-5.68,5.4-9.65,6.41,13.57-20.37,17.72-33.31,12.24-53.76-17.95,9.6-29.46,24-42.31,51.73.13-9.58-.2-9.72.1-13.1-6.08,10.36-21.87,42.74-22,52.93-3.63-8.94-6.14-11-5.92-15.52-1.37,14.32,10.88,23.34-13.39,39.46C680,214.88,681.09,214.94,681.09,214.94Z"/><path d="M651.06,226.32c30.2-18,28.92-24.76,27.29-33.36a39.76,39.76,0,0,1-1-11.63l4.47.33c-.12,2.26.65,3.79,2.18,6.81l.62,1.25c4.17-14.61,16.71-39.42,21-46.71l5.06-8.61-.9,9.94a28.05,28.05,0,0,0-.12,3.21c11.65-23,22.74-35.29,39-44l2.49-1.33.73,2.72c5,18.8,1.85,31.67-7.14,47l1-.8,6.42-5.37-2.88,7.85c-15.32,41.75-46.92,54.87-63.9,61.92L682,217l-.69.19c-.67.19-3.57,1.17-28.06,13Zm32.61-14.9c15.21-6.31,42.6-17.69,58.13-51.37a15.06,15.06,0,0,1-3.7,1.39l-5.65,1.44,3.23-4.85c13.41-20.12,16.61-32.08,12.64-49.14-15.9,9.24-26.62,23-38.81,49.29l-4.4,9.5.13-10.47c0-1.65,0-3,0-4.16-7.2,13.9-17.37,36.42-17.5,44.06l-.2,11-3.88-9.59c.3,4.6-.55,9.45-5.07,14.88a16.86,16.86,0,0,1,1.78-.57Z"/><path d="M689.5,212.56c25.22-23,44.48-59,44.49-65.75-14,24.46-19.83,44.34-59,70.07"/></g></svg>