<svg xmlns="http://www.w3.org/2000/svg" xmlns:xlink="http://www.w3.org/1999/xlink" viewBox="0 0 1366 768"><defs><style>.cls-1,.cls-3{fill:none;}.cls-2{fill:#ffcc4d;}.cls-3{stroke:#000;stroke-miterlimit:10;}.cls-4{fill:#fdcb4f;}.cls-5{fill:#010100;}.cls-6{fill:#010101;}.cls-7{fill:#fdcb4e;}.cls-8{fill:#29abe2;}.cls-9{fill:url(#Nouveau_motif);}</style><pattern id="Nouveau_motif" data-name="Nouveau motif" width="94.48" height="136.45" patternUnits="userSpaceOnUse" viewBox="0 0 94.48 136.45"><rect class="cls-1" width="94.48" height="136.45"/><rect class="cls-2" x="15.39" y="18.38" width="2.26" height="26.32"/><path d="M17.92,18.11h-2.8V45h2.8Zm-2.26.54h1.72V44.44H15.66Z"/><path class="cls-3" d="M15,41.67"/><rect x="16.25" y="18.38" width="0.54" height="26.32"/><polygon points="16.52 18.55 14.46 18.55 15.49 16.77 16.52 14.99 17.55 16.77 18.58 18.55 16.52 18.55"/><polygon class="cls-2" points="29.09 18.55 27.09 20.38 29.09 21.52 27.09 22.57 29.09 23.87 27.09 24.97 29.09 26.59 17.65 26.59 17.65 18.55 29.09 18.55"/><path d="M27.57,25l2.05-1.12-2-1.3,2-1.07-2.11-1.19,2.25-2H17.38v8.57H29.85Zm-9.65-6.19H28.4l-1.76,1.61,1.9,1.08-2,1,2,1.3-2,1.08,1.73,1.39H17.92Z"/><rect class="cls-2" x="46.33" y="3.39" width="2.26" height="26.32"/><path d="M48.86,3.12H46.07V30h2.79Zm-2.26.54h1.73V29.45H46.6Z"/><path class="cls-3" d="M46,26.68"/><rect x="47.2" y="3.39" width="0.54" height="26.32"/><polygon points="47.46 3.56 45.41 3.56 46.44 1.78 47.46 0 48.49 1.78 49.52 3.56 47.46 3.56"/><polygon class="cls-2" points="60.04 3.56 58.04 5.38 60.04 6.52 58.04 7.58 60.04 8.88 58.04 9.98 60.04 11.6 48.59 11.6 48.59 3.56 60.04 3.56"/><path d="M58.52,10l2-1.13-2-1.29,2-1.07-2.11-1.2,2.24-2H48.33v8.56H60.8ZM48.86,3.83H59.35L57.58,5.44l1.9,1.08-2,1,2,1.3-2,1.08,1.72,1.39H48.86Z"/><rect class="cls-2" x="76.57" y="17.48" width="2.26" height="26.32"/><path d="M79.1,17.21H76.3V44.07h2.8Zm-2.26.53h1.72V43.53H76.84Z"/><path class="cls-3" d="M76.19,40.76"/><rect x="77.43" y="17.48" width="0.54" height="26.32"/><polygon points="77.7 17.65 75.64 17.65 76.67 15.87 77.7 14.09 78.73 15.87 79.76 17.65 77.7 17.65"/><polygon class="cls-2" points="90.28 17.65 88.27 19.47 90.28 20.61 88.27 21.67 90.28 22.96 88.27 24.06 90.28 25.68 78.83 25.68 78.83 17.65 90.28 17.65"/><path d="M88.75,24.11l2-1.13-2-1.29,2-1.07-2.1-1.2,2.24-2H78.56V26H91ZM79.1,17.92H89.58l-1.76,1.6,1.9,1.08-2,1,2,1.3-2,1.08,1.73,1.39H79.1Z"/><rect class="cls-4" x="32.81" y="30.83" width="29.06" height="5.3"/><path class="cls-5" d="M62.52,30.18H32.16v6.6H62.52Zm-29.06,1.3H61.22v4H33.46Z"/><rect class="cls-2" x="0.65" y="84.26" width="27.09" height="39.97"/><path class="cls-6" d="M28.38,83.61H0v41.26H28.38ZM1.3,84.9H27.09v38.68H1.3Z"/><rect class="cls-2" x="66.75" y="84.26" width="27.09" height="39.97"/><path class="cls-6" d="M94.48,83.61H66.1v41.26H94.48ZM67.39,84.9H93.18v38.68H67.39Z"/><rect class="cls-2" x="27.73" y="84.26" width="39.01" height="42.25"/><path class="cls-5" d="M67.39,83.61H27.09v43.55h40.3Zm-39,1.29H66.1v41H28.38Z"/><rect class="cls-7" x="36.66" y="103.89" width="21.24" height="22.62"/><path d="M58.55,103.24H36v23.92H58.55Zm-21.24,1.3H57.26v21.32H37.31Z"/><rect class="cls-7" x="6.95" y="108.81" width="14.48" height="15.42"/><path d="M22.08,108.16H6.3v16.71H22.08ZM7.6,109.46H20.78v14.12H7.6Z"/><rect class="cls-4" x="34.85" y="36.13" width="25.06" height="48.12"/><path class="cls-5" d="M60.55,35.48H34.2V84.9H60.55Zm-25.06,1.3H59.25V83.61H35.49Z"/><rect class="cls-4" x="7.79" y="48.87" width="17.98" height="35.39"/><path class="cls-6" d="M26.41,48.22H7.14V84.9H26.41Zm-18,1.3H25.12V83.61H8.44Z"/><rect class="cls-4" x="6.22" y="45.5" width="21.11" height="3.37"/><path class="cls-5" d="M28,44.85H5.57v4.67H28ZM6.86,46.15H26.68v2.07H6.86Z"/><polygon class="cls-4" points="24.93 38.88 24.93 42.19 20.23 42.19 20.23 38.88 13.18 38.88 13.18 42.19 8.48 42.19 8.48 38.88 3.64 38.88 3.64 45.5 28.97 45.5 28.97 38.88 24.93 38.88"/><path class="cls-5" d="M29.62,38.23H24.28v3.31h-3.4V38.23H12.54v3.31H9.13V38.23H3v7.92H29.62ZM4.29,39.52H7.84v3.32h6V39.52h5.75v3.32h6V39.52h2.74v5.33h-24Z"/><polygon class="cls-4" points="58.77 24.2 58.77 27.52 52.56 27.52 52.56 24.2 43.25 24.2 43.25 27.52 37.04 27.52 37.04 24.2 30.64 24.2 30.64 30.83 64.11 30.83 64.11 24.2 58.77 24.2"/><path class="cls-5" d="M64.75,23.55H58.12v3.32H53.21V23.55H42.6v3.32H37.69V23.55H30v7.93H64.75Zm-33.46,1.3H36.4v3.31h7.5V24.85h8v3.31h7.51V24.85h4v5.33H31.29Z"/><rect class="cls-4" x="69.05" y="48.87" width="17.98" height="35.39"/><path class="cls-6" d="M87.67,48.22H68.4V84.9H87.67Zm-18,1.3H86.37V83.61H69.69Z"/><rect class="cls-4" x="67.47" y="45.5" width="21.11" height="3.37"/><path class="cls-5" d="M89.23,44.85H66.82v4.67H89.23Zm-21.11,1.3H87.93v2.07H68.12Z"/><polygon class="cls-4" points="86.19 38.88 86.19 42.19 81.49 42.19 81.49 38.88 74.44 38.88 74.44 42.19 69.74 42.19 69.74 38.88 64.89 38.88 64.89 45.5 90.22 45.5 90.22 38.88 86.19 38.88"/><path class="cls-5" d="M90.87,38.23H85.54v3.31h-3.4V38.23H73.79v3.31h-3.4V38.23H64.25v7.92H90.87ZM65.54,39.52h3.55v3.32h6V39.52h5.75v3.32h6V39.52h2.74v5.33h-24Z"/><rect class="cls-4" x="18.56" y="130.81" width="57.92" height="4.99"/><path class="cls-5" d="M77.12,130.16H17.91v6.29H77.12Zm-57.91,1.3H75.83v3.69H19.21Z"/><polygon class="cls-4" points="73.8 129.51 66.75 126.51 27.73 126.51 20.95 129.51 73.8 129.51"/><path class="cls-6" d="M66.88,125.86H27.73l-9.85,4.3H77Zm-39,1.3H66.61l4,1.71H24Z"/><line class="cls-4" x1="40.95" y1="36.13" x2="40.95" y2="84.26"/><rect class="cls-6" x="40.3" y="36.13" width="1.3" height="48.12"/><line class="cls-4" x1="44.16" y1="36.13" x2="44.16" y2="84.26"/><rect class="cls-6" x="43.52" y="36.13" width="1.3" height="48.12"/><line class="cls-4" x1="47.37" y1="36.13" x2="47.37" y2="84.26"/><rect class="cls-6" x="46.73" y="36.13" width="1.3" height="48.12"/><line class="cls-4" x1="50.58" y1="36.13" x2="50.58" y2="84.26"/><rect class="cls-6" x="49.94" y="36.13" width="1.3" height="48.12"/><line class="cls-4" x1="53.79" y1="36.13" x2="53.79" y2="84.26"/><rect class="cls-6" x="53.15" y="36.13" width="1.3" height="48.12"/><line class="cls-4" x1="34.85" y1="42.97" x2="59.9" y2="42.97"/><rect class="cls-6" x="34.84" y="42.32" width="25.06" height="1.3"/><line class="cls-4" x1="34.85" y1="46.39" x2="59.9" y2="46.39"/><rect class="cls-6" x="34.84" y="45.75" width="25.06" height="1.3"/><line class="cls-4" x1="34.85" y1="53.24" x2="59.9" y2="53.24"/><rect class="cls-6" x="34.84" y="52.59" width="25.06" height="1.3"/><line class="cls-4" x1="34.85" y1="56.66" x2="59.9" y2="56.66"/><rect class="cls-6" x="34.84" y="56.01" width="25.06" height="1.3"/><line class="cls-4" x1="34.85" y1="63.5" x2="59.9" y2="63.5"/><rect class="cls-6" x="34.84" y="62.85" width="25.06" height="1.3"/><line class="cls-4" x1="34.85" y1="66.92" x2="59.9" y2="66.92"/><rect class="cls-6" x="34.84" y="66.27" width="25.06" height="1.3"/><line class="cls-4" x1="34.85" y1="73.76" x2="59.9" y2="73.76"/><rect class="cls-6" x="34.84" y="73.11" width="25.06" height="1.3"/><line class="cls-4" x1="34.85" y1="77.18" x2="59.9" y2="77.18"/><rect class="cls-6" x="34.84" y="76.53" width="25.06" height="1.3"/><circle class="cls-4" cx="16.52" cy="63.5" r="5.86"/><path class="cls-5" d="M23,63.5A6.51,6.51,0,1,0,16.52,70,6.52,6.52,0,0,0,23,63.5Zm-1.3,0a5.21,5.21,0,1,1-5.21-5.21A5.22,5.22,0,0,1,21.73,63.5Z"/><circle class="cls-5" cx="16.52" cy="63.5" r="4.14"/><circle class="cls-4" cx="78.56" cy="63.5" r="5.86"/><path class="cls-5" d="M85.07,63.5A6.51,6.51,0,1,0,78.56,70,6.52,6.52,0,0,0,85.07,63.5Zm-1.3,0a5.21,5.21,0,1,1-5.21-5.21A5.22,5.22,0,0,1,83.77,63.5Z"/><circle class="cls-5" cx="78.56" cy="63.5" r="4.14"/><rect x="9.17" y="113.53" width="10.05" height="10.7"/><rect class="cls-7" x="73.05" y="108.81" width="14.48" height="15.42"/><path d="M88.18,108.16H72.4v16.71H88.18Zm-14.48,1.3H86.88v14.12H73.7Z"/><rect x="75.27" y="113.53" width="10.05" height="10.7"/><rect x="42.22" y="103.89" width="10.05" height="22.62"/><rect class="cls-4" x="33.49" y="89.44" width="7.78" height="7.78"/><path class="cls-6" d="M41.91,88.79H32.84v9.08h9.07Zm-7.77,1.3h6.48v6.48H34.14Z"/><rect class="cls-6" x="35.25" y="91.2" width="4.26" height="4.26"/><rect class="cls-4" x="43.84" y="89.44" width="7.78" height="7.78"/><path class="cls-6" d="M52.27,88.79H43.2v9.08h9.07Zm-7.78,1.3H51v6.48H44.49Z"/><rect class="cls-6" x="45.6" y="91.2" width="4.26" height="4.26"/><rect class="cls-4" x="54.2" y="89.44" width="7.78" height="7.78"/><path class="cls-6" d="M62.62,88.79H53.55v9.08h9.07Zm-7.77,1.3h6.48v6.48H54.85Z"/><rect class="cls-6" x="55.96" y="91.2" width="4.26" height="4.26"/><line x1="39.51" y1="103.89" x2="39.51" y2="126.51"/><rect class="cls-5" x="38.86" y="103.89" width="1.3" height="22.62"/><line x1="54.85" y1="103.89" x2="54.85" y2="126.51"/><rect class="cls-5" x="54.21" y="103.89" width="1.3" height="22.62"/></pattern></defs><title>Fichier 25</title><g id="Calque_2" data-name="Calque 2"><g id="Calque_4" data-name="Calque 4"><rect class="cls-8" width="1366" height="768"/><rect class="cls-9" y="583.32" width="1366" height="184.68"/></g></g></svg>