<svg id="Calque_1" data-name="Calque 1" xmlns="http://www.w3.org/2000/svg" xmlns:xlink="http://www.w3.org/1999/xlink" viewBox="0 0 1549.69 845.02"><defs><style>.cls-1{fill:none;}.cls-2{fill:#18b7e5;}.cls-3{clip-path:url(#clip-path);}.cls-4{fill:#fff;stroke-width:5px;}.cls-4,.cls-5{stroke:#000;stroke-miterlimit:10;}.cls-5{fill:#ffd468;stroke-width:8px;}.cls-6,.cls-8{font-size:118.74px;font-family:Gotham-UltraItalic, Gotham;font-style:italic;}.cls-7{letter-spacing:-0.02em;}.cls-8{fill:#00df33;}</style><clipPath id="clip-path" transform="translate(13.78 31.88)"><rect class="cls-1" y="-1" width="1366" height="768"/></clipPath></defs><title>winner</title><rect class="cls-2" x="13.78" y="30.88" width="1366" height="768"/><g class="cls-3"><path class="cls-4" d="M358.19,93.56c0-20.36-20.85-36.87-46.56-36.87-16.05,0-30.2,6.43-38.57,16.21-8.38-9.78-22.53-16.21-38.57-16.21-23.47,0-42.87,13.74-46.09,31.61a58.15,58.15,0,0,0-13.83-1.65c-25.72,0-46.57,16.51-46.57,36.87s20.85,36.86,46.57,36.86a58.22,58.22,0,0,0,12.32-1.31c7.28,12.83,23.56,21.77,42.48,21.77a54.53,54.53,0,0,0,28.81-7.91c8.45,9.32,22.25,15.4,37.85,15.4,20,0,37.11-10,43.68-24.07a56.83,56.83,0,0,0,18.48,3c25.72,0,46.57-16.51,46.57-36.87S383.91,93.56,358.19,93.56Z" transform="translate(13.78 31.88)"/><path class="cls-4" d="M261.08,386.57c0-24.09-24.67-43.62-55.1-43.62-19,0-35.73,7.61-45.64,19.18-9.9-11.57-26.65-19.18-45.63-19.18C86.94,343,64,359.21,60.18,380.36a68.15,68.15,0,0,0-16.37-2c-30.43,0-55.09,19.53-55.09,43.62s24.66,43.62,55.09,43.62a68.58,68.58,0,0,0,14.58-1.56c8.62,15.19,27.88,25.77,50.27,25.77a64.53,64.53,0,0,0,34.08-9.36c10,11,26.33,18.22,44.79,18.22,23.7,0,43.91-11.85,51.68-28.48a67.49,67.49,0,0,0,21.87,3.58c30.43,0,55.1-19.53,55.1-43.62S291.51,386.57,261.08,386.57Z" transform="translate(13.78 31.88)"/><path class="cls-4" d="M386.26,624.63c0-13.5-13.82-24.45-30.88-24.45-10.64,0-20,4.26-25.57,10.75-5.55-6.49-14.94-10.75-25.58-10.75-15.55,0-28.42,9.11-30.56,21a38.43,38.43,0,0,0-9.16-1.09c-17.06,0-30.88,10.94-30.88,24.44s13.82,24.44,30.88,24.44a38.14,38.14,0,0,0,8.16-.87c4.83,8.51,15.63,14.44,28.17,14.44A36.19,36.19,0,0,0,320,677.26c5.6,6.18,14.75,10.21,25.09,10.21,13.29,0,24.61-6.64,29-16a37.73,37.73,0,0,0,12.25,2c17.05,0,30.88-10.94,30.88-24.44S403.31,624.63,386.26,624.63Z" transform="translate(13.78 31.88)"/><path class="cls-4" d="M152.63,747.8c0-13.5-13.82-24.44-30.87-24.44-10.65,0-20,4.26-25.58,10.74-5.55-6.48-14.93-10.74-25.58-10.74-15.55,0-28.42,9.11-30.55,21a38.58,38.58,0,0,0-9.17-1.1C13.82,743.22,0,754.17,0,767.67s13.82,24.44,30.88,24.44a38.89,38.89,0,0,0,8.17-.87c4.83,8.51,15.62,14.44,28.17,14.44a36.19,36.19,0,0,0,19.1-5.25c5.6,6.18,14.75,10.21,25.09,10.21,13.29,0,24.61-6.64,29-16a37.73,37.73,0,0,0,12.25,2c17.05,0,30.88-11,30.88-24.45S169.68,747.8,152.63,747.8Z" transform="translate(13.78 31.88)"/><path class="cls-4" d="M822.54,1c0-16.76-17.16-30.35-38.34-30.35-13.21,0-24.86,5.29-31.75,13.34-6.9-8-18.55-13.34-31.76-13.34-19.32,0-35.3,11.31-38,26a47.42,47.42,0,0,0-11.38-1.36C650.18-4.71,633,8.88,633,25.64S650.18,56,671.36,56a47.89,47.89,0,0,0,10.14-1.08c6,10.57,19.4,17.93,35,17.93a44.94,44.94,0,0,0,23.72-6.51C747.16,74,758.52,79,771.36,79c16.5,0,30.56-8.25,36-19.82a46.91,46.91,0,0,0,15.21,2.49c21.18,0,38.34-13.59,38.34-30.35S843.72,1,822.54,1Z" transform="translate(13.78 31.88)"/><path class="cls-4" d="M788.86,188.62c0-16.77-17.17-30.35-38.34-30.35-13.22,0-24.87,5.29-31.76,13.34-6.89-8.05-18.54-13.34-31.76-13.34-19.32,0-35.29,11.31-37.94,26a48,48,0,0,0-11.39-1.36c-21.17,0-38.34,13.59-38.34,30.35s17.17,30.36,38.34,30.36a47.89,47.89,0,0,0,10.14-1.08c6,10.56,19.4,17.92,35,17.92A44.83,44.83,0,0,0,706.51,254c7,7.68,18.32,12.68,31.17,12.68,16.49,0,30.55-8.25,36-19.82a47,47,0,0,0,15.22,2.49c21.17,0,38.34-13.59,38.34-30.35S810,188.62,788.86,188.62Z" transform="translate(13.78 31.88)"/><path class="cls-4" d="M1288,56.92c0-16.76-17.16-30.35-38.34-30.35-13.21,0-24.86,5.29-31.76,13.34-6.89-8-18.54-13.34-31.75-13.34-19.32,0-35.3,11.31-38,26a48,48,0,0,0-11.39-1.36c-21.17,0-38.34,13.59-38.34,30.36s17.17,30.35,38.34,30.35a48,48,0,0,0,10.15-1.08c6,10.56,19.4,17.93,35,17.93a44.86,44.86,0,0,0,23.72-6.52C1212.59,130,1224,135,1236.8,135c16.49,0,30.55-8.25,36-19.82a47,47,0,0,0,15.22,2.5c21.18,0,38.34-13.59,38.34-30.36S1309.16,56.92,1288,56.92Z" transform="translate(13.78 31.88)"/><path class="cls-4" d="M1122.9,277.72c0-16.76-17.16-30.35-38.34-30.35-13.21,0-24.86,5.29-31.75,13.35-6.9-8.06-18.55-13.35-31.76-13.35-19.32,0-35.29,11.32-37.95,26A47.36,47.36,0,0,0,971.72,272c-21.18,0-38.34,13.59-38.34,30.35s17.16,30.35,38.34,30.35a47.89,47.89,0,0,0,10.14-1.08c6,10.57,19.4,17.93,35,17.93a44.94,44.94,0,0,0,23.72-6.51c7,7.67,18.32,12.68,31.16,12.68,16.5,0,30.56-8.25,36-19.82a46.91,46.91,0,0,0,15.21,2.49c21.18,0,38.35-13.59,38.35-30.35S1144.08,277.72,1122.9,277.72Z" transform="translate(13.78 31.88)"/><path class="cls-4" d="M1441.59,717.68c0-16.76-17.16-30.35-38.34-30.35-13.21,0-24.86,5.29-31.75,13.35-6.9-8.06-18.55-13.35-31.76-13.35-19.32,0-35.3,11.32-38,26a47.42,47.42,0,0,0-11.38-1.36c-21.18,0-38.34,13.59-38.34,30.35s17.16,30.35,38.34,30.35a47.89,47.89,0,0,0,10.14-1.08c6,10.57,19.4,17.93,35,17.93a44.94,44.94,0,0,0,23.72-6.51c7,7.67,18.32,12.68,31.16,12.68,16.5,0,30.56-8.25,36-19.82a46.91,46.91,0,0,0,15.21,2.49c21.18,0,38.34-13.59,38.34-30.35S1462.77,717.68,1441.59,717.68Z" transform="translate(13.78 31.88)"/><path class="cls-4" d="M973,717.68c0-16.76-17.17-30.35-38.34-30.35-13.22,0-24.87,5.29-31.76,13.35-6.9-8.06-18.55-13.35-31.76-13.35-19.32,0-35.29,11.32-38,26A47.36,47.36,0,0,0,821.76,712c-21.18,0-38.34,13.59-38.34,30.35s17.16,30.35,38.34,30.35a47.89,47.89,0,0,0,10.14-1.08c6,10.57,19.4,17.93,35,17.93A44.94,44.94,0,0,0,890.6,783c7,7.67,18.32,12.68,31.16,12.68,16.5,0,30.56-8.25,36-19.82A46.93,46.93,0,0,0,973,778.39c21.17,0,38.34-13.59,38.34-30.35S994.12,717.68,973,717.68Z" transform="translate(13.78 31.88)"/><path class="cls-4" d="M1495.07,386.11c0-16.76-17.17-30.35-38.34-30.35-13.21,0-24.87,5.29-31.76,13.34-6.89-8.05-18.54-13.34-31.76-13.34-19.32,0-35.29,11.31-37.94,26a47.44,47.44,0,0,0-11.39-1.37c-21.17,0-38.34,13.59-38.34,30.36s17.17,30.35,38.34,30.35a47.89,47.89,0,0,0,10.14-1.08c6,10.56,19.4,17.93,35,17.93a44.83,44.83,0,0,0,23.72-6.52c7,7.68,18.32,12.68,31.17,12.68,16.49,0,30.55-8.24,36-19.81a47,47,0,0,0,15.22,2.49c21.17,0,38.34-13.59,38.34-30.36S1516.24,386.11,1495.07,386.11Z" transform="translate(13.78 31.88)"/><path class="cls-4" d="M758.59,565.79c0-16.76-17.16-30.35-38.34-30.35-13.21,0-24.86,5.29-31.75,13.34-6.9-8-18.55-13.34-31.76-13.34-19.32,0-35.3,11.31-38,26a47.42,47.42,0,0,0-11.38-1.36c-21.18,0-38.34,13.58-38.34,30.35s17.16,30.35,38.34,30.35a47.89,47.89,0,0,0,10.14-1.08c6,10.57,19.4,17.93,35,17.93a44.86,44.86,0,0,0,23.72-6.52c7,7.68,18.32,12.69,31.16,12.69,16.5,0,30.56-8.25,36-19.82a46.91,46.91,0,0,0,15.21,2.49c21.18,0,38.34-13.59,38.34-30.36S779.77,565.79,758.59,565.79Z" transform="translate(13.78 31.88)"/><path class="cls-4" d="M1192.12,533.23c0-20.77-21.27-37.61-47.51-37.61-16.37,0-30.81,6.56-39.35,16.54-8.54-10-23-16.54-39.35-16.54-23.93,0-43.73,14-47,32.25a59.47,59.47,0,0,0-14.11-1.68c-26.24,0-47.51,16.83-47.51,37.6s21.27,37.61,47.51,37.61a59.27,59.27,0,0,0,12.57-1.34c7.43,13.09,24,22.22,43.34,22.22a55.63,55.63,0,0,0,29.39-8.08c8.62,9.52,22.69,15.72,38.61,15.72,20.44,0,37.86-10.22,44.56-24.56a58.27,58.27,0,0,0,18.86,3.09c26.23,0,47.5-16.84,47.5-37.61S1218.35,533.23,1192.12,533.23Z" transform="translate(13.78 31.88)"/></g><polygon class="cls-5" points="1028.84 316.31 358.47 316.31 397.6 115.68 1069.79 115.68 1028.84 316.31"/><text class="cls-6" transform="translate(397.63 261.29)"><tspan class="cls-7">Y</tspan><tspan x="81.22" y="0">OU WIN !</tspan></text><text class="cls-8" transform="translate(397.63 256.92)"><tspan class="cls-7">Y</tspan><tspan x="81.22" y="0">OU WIN !</tspan></text></svg>