<?xml version="1.0" encoding="utf-8"?>
<!-- Generator: Adobe Illustrator 23.0.1, SVG Export Plug-In . SVG Version: 6.00 Build 0)  -->
<svg version="1.1" id="Calque_1" xmlns="http://www.w3.org/2000/svg" xmlns:xlink="http://www.w3.org/1999/xlink" x="0px" y="0px"
	 viewBox="0 0 841.89 595.28" style="enable-background:new 0 0 841.89 595.28;" xml:space="preserve">
<style type="text/css">
	.st0{fill:#020203;}
	.st1{fill:#FFD568;}
</style>
<rect x="296.46" y="291.31" class="st0" width="62.02" height="23.04"/>
<g>
	<polygon class="st1" points="350.98,247.12 350.98,238.39 303.97,238.39 303.97,247.12 296.46,247.12 296.46,270.16 358.48,270.16 
		358.48,247.12 	"/>
	<path class="st0" d="M360.32,272h-65.69v-26.71h7.51v-8.73h50.68v8.73h7.51V272z M298.3,268.32h58.35v-19.36h-7.51v-8.73H305.8
		v8.73h-7.51V268.32z"/>
</g>
<rect x="319.87" y="221.22" class="st0" width="15.78" height="17.18"/>
<polygon class="st0" points="326.98,253.05 277.68,267.67 296.46,291.31 358.7,291.31 376.28,267.67 "/>
<g>
	<circle class="st1" cx="327.47" cy="279.14" r="10.32"/>
	<path class="st0" d="M327.47,291.29c-6.7,0-12.15-5.45-12.15-12.15c0-6.7,5.45-12.15,12.15-12.15c6.7,0,12.15,5.45,12.15,12.15
		C339.63,285.84,334.17,291.29,327.47,291.29z M327.47,270.66c-4.68,0-8.48,3.8-8.48,8.48c0,4.68,3.8,8.48,8.48,8.48
		c4.68,0,8.48-3.8,8.48-8.48C335.95,274.46,332.15,270.66,327.47,270.66z"/>
</g>
<circle class="st0" cx="312.82" cy="246.91" r="2.75"/>
<circle class="st0" cx="319.85" cy="246.91" r="2.75"/>
<circle class="st0" cx="326.89" cy="246.91" r="2.75"/>
<circle class="st0" cx="333.93" cy="246.91" r="2.75"/>
<circle class="st0" cx="340.96" cy="246.91" r="2.75"/>
</svg>
