<?xml version="1.0" encoding="utf-8"?>
<!-- Generator: Adobe Illustrator 23.0.1, SVG Export Plug-In . SVG Version: 6.00 Build 0)  -->
<svg version="1.1" id="Calque_1" xmlns="http://www.w3.org/2000/svg" xmlns:xlink="http://www.w3.org/1999/xlink" x="0px" y="0px"
	 viewBox="0 0 841.9 595.3" style="enable-background:new 0 0 841.9 595.3;" xml:space="preserve">
<style type="text/css">
	.st0{fill:#EF791F;}
	.st1{fill:#020203;}
	.st2{fill:#FFD568;}
	.st3{fill:none;stroke:#020203;stroke-miterlimit:10;}
	.st4{fill:#020203;stroke:#020203;stroke-miterlimit:10;}
</style>
<rect x="373.3" y="201.6" class="st0" width="34.8" height="108.3"/>
<g>
	<ellipse transform="matrix(1 -6.639533e-03 6.639533e-03 1 -1.962 2.605)" class="st1" cx="391.4" cy="296.8" rx="4.8" ry="5.2"/>
	<polygon class="st1" points="394.4,293.1 393.5,292.8 394.2,290.7 388.4,290.7 389.1,292.8 388.3,293.2 387.2,289.8 395.4,289.7 	
		"/>
	<g>
		
			<rect x="388.6" y="263.8" transform="matrix(1 -6.639876e-03 6.639876e-03 1 -1.8306 2.6038)" class="st2" width="5.3" height="26.5"/>
		<path class="st1" d="M394.4,290.7l-6.1,0l-0.2-27.4l6.1,0L394.4,290.7z M389.1,289.8l4.4,0l-0.2-25.5l-4.4,0L389.1,289.8z"/>
	</g>
	<path class="st3" d="M386.2,289.3"/>
	
		<rect x="390.8" y="263.8" transform="matrix(1 -6.639930e-03 6.639930e-03 1 -1.8306 2.6039)" class="st1" width="0.9" height="26.5"/>
	<path class="st4" d="M395.1,263.7l-7.9,0l0-3.2l7.9,0L395.1,263.7z M388.1,262.8l6.1,0l0-1.4l-6.1,0L388.1,262.8z"/>
	
		<rect x="383.5" y="261.5" transform="matrix(1 -6.639930e-03 6.639930e-03 1 -1.7324 2.5661)" class="st1" width="4.1" height="1.4"/>
	
		<rect x="394.6" y="261.4" transform="matrix(1 -6.639930e-03 6.639930e-03 1 -1.7317 2.6397)" class="st1" width="4.1" height="1.4"/>
	<polygon class="st1" points="388.5,261.5 388.2,222.6 390.8,210.3 393.5,222.6 393.8,261.4 	"/>
	<g>
		<ellipse transform="matrix(1 -6.639533e-03 6.639533e-03 1 -1.962 2.605)" class="st2" cx="391.4" cy="296.8" rx="1.8" ry="1.9"/>
		<path class="st1" d="M391.4,299.2c-1.2,0-2.2-1-2.2-2.3s1-2.4,2.2-2.4c1.2,0,2.2,1,2.2,2.3S392.6,299.2,391.4,299.2z M391.4,295.4
			c-0.7,0-1.3,0.6-1.3,1.4s0.6,1.4,1.3,1.4c0.7,0,1.3-0.6,1.3-1.4C392.7,296,392.1,295.4,391.4,295.4z"/>
	</g>
</g>
</svg>
