<?xml version="1.0" encoding="utf-8"?>
<!-- Generator: Adobe Illustrator 23.0.1, SVG Export Plug-In . SVG Version: 6.00 Build 0)  -->
<svg version="1.1" id="Calque_1" xmlns="http://www.w3.org/2000/svg" xmlns:xlink="http://www.w3.org/1999/xlink" x="0px" y="0px"
	 viewBox="0 0 841.89 595.28" style="enable-background:new 0 0 841.89 595.28;" xml:space="preserve">
<style type="text/css">
	.st0{fill:#EF791F;}
	.st1{fill:#020203;}
	.st2{fill:#FFD568;}
	.st3{fill:none;stroke:#020203;stroke-miterlimit:10;}
	.st4{fill:#020203;stroke:#020203;stroke-miterlimit:10;}
</style>
<rect x="373.33" y="201.61" class="st0" width="34.75" height="108.34"/>
<g>
	
		<ellipse transform="matrix(1 -6.639679e-03 6.639679e-03 1 -1.9621 2.605)" class="st1" cx="391.36" cy="296.8" rx="4.81" ry="5.17"/>
	<polygon class="st1" points="394.37,293.11 393.54,292.81 394.21,290.67 388.43,290.71 389.12,292.84 388.29,293.15 387.2,289.78 
		395.42,289.72 	"/>
	<g>
		
			<rect x="388.6" y="263.76" transform="matrix(1 -6.640022e-03 6.640022e-03 1 -1.8306 2.6039)" class="st2" width="5.25" height="26.45"/>
		<path class="st1" d="M394.38,290.67l-6.12,0.04l-0.18-27.39l6.12-0.04L394.38,290.67z M389.12,289.76l4.37-0.03l-0.17-25.51
			l-4.37,0.03L389.12,289.76z"/>
	</g>
	<path class="st3" d="M386.19,289.34"/>
	
		<rect x="390.79" y="263.76" transform="matrix(1 -6.640076e-03 6.640076e-03 1 -1.8306 2.6039)" class="st1" width="0.87" height="26.45"/>
	<path class="st4" d="M395.08,263.73l-7.87,0.05l-0.02-3.24l7.87-0.05L395.08,263.73z M388.07,262.83l6.12-0.04l-0.01-1.36
		l-6.12,0.04L388.07,262.83z"/>
	
		<rect x="383.54" y="261.49" transform="matrix(1 -6.640076e-03 6.640076e-03 1 -1.7324 2.5661)" class="st1" width="4.09" height="1.37"/>
	
		<rect x="394.63" y="261.42" transform="matrix(1 -6.640076e-03 6.640076e-03 1 -1.7316 2.6397)" class="st1" width="4.09" height="1.37"/>
	<polygon class="st1" points="388.5,261.47 388.24,222.64 390.78,210.32 393.49,222.61 393.75,261.44 	"/>
	<g>
		
			<ellipse transform="matrix(1 -6.639679e-03 6.639679e-03 1 -1.9621 2.605)" class="st2" cx="391.36" cy="296.8" rx="1.75" ry="1.88"/>
		<path class="st1" d="M391.37,299.16c-1.21,0.01-2.19-1.04-2.2-2.34s0.97-2.36,2.17-2.37c1.21-0.01,2.19,1.04,2.2,2.34
			S392.58,299.15,391.37,299.16z M391.35,295.39c-0.72,0-1.31,0.64-1.3,1.42c0.01,0.78,0.6,1.41,1.32,1.4c0.72,0,1.31-0.64,1.3-1.42
			C392.66,296.02,392.07,295.39,391.35,295.39z"/>
	</g>
</g>
</svg>
