<svg xmlns="http://www.w3.org/2000/svg" viewBox="0 0 248.32 75.29"><defs><style>.cls-1{fill:#ffd468;stroke-width:8px;}.cls-1,.cls-3{stroke:#000;}.cls-1,.cls-3,.cls-4{stroke-miterlimit:10;}.cls-2{fill:#f1781a;}.cls-4{fill:none;stroke:#f1781a;}</style></defs><title>Fichier 81</title><g id="Calque_2" data-name="Calque 2"><g id="Calque_1-2" data-name="Calque 1"><polygon class="cls-1" points="229.68 71.29 4.86 71.29 17.98 4 243.42 4 229.68 71.29"/><path class="cls-2" d="M135.31,54.16c8.26-.6,25.82-.45,40.13-18C172.27,37.4,172,37.76,170,37.6c9.45-7.19,13.4-12.46,14.13-22.7-9.75,1.56-17.3,6.33-27.58,17,1.57-4.37,1.44-4.49,2.12-6-4.43,3.79-16.8,16.12-18.49,20.76-.25-4.67-1.07-6-.25-8.05C137,45,141.21,51,127.54,54.59,134.82,54,135.31,54.16,135.31,54.16Z"/><path d="M119.75,54.62c16.69-3.46,17.17-6.77,17.79-11a19.39,19.39,0,0,1,1.4-5.49l2,.86c-.41,1-.3,1.84-.08,3.47,0,.21.06.43.09.67,4.23-6,13.9-15.42,17-18.08L161.64,22l-2,4.41a12,12,0,0,0-.57,1.45c9-8.67,16-12.56,24.87-14l1.35-.21-.1,1.36c-.67,9.41-4.17,14.8-10.72,20.41l.56-.22,3.79-1.44-2.56,3.15c-13.64,16.7-30.2,17.7-39.09,18.24l-1.8.12-.34,0c-.34,0-1.82,0-14.93,1.53ZM137.06,53c8-.49,22.32-1.36,34.77-14.33a7.37,7.37,0,0,1-1.92,0l-2.81-.24,2.25-1.71c9.33-7.09,12.69-12.06,13.57-20.51-8.75,1.72-15.83,6.3-25.59,16.43l-3.52,3.66,1.72-4.78c.27-.75.49-1.37.67-1.9-5.5,5.23-13.73,13.94-15,17.42l-1.83,5-.26-5a9.6,9.6,0,0,1-4.68,6,7.46,7.46,0,0,1,.91,0Z"/><path d="M139.54,54.4c15.2-6.53,29.73-20,30.81-23.08-10.31,9-16.11,17.18-38.12,22.76"/><ellipse cx="63.91" cy="53.61" rx="4.53" ry="4.28" transform="translate(-17.12 73.45) rotate(-53.75)"/><polygon points="67.96 54.27 67.81 53.48 69.69 53.02 67.09 48.53 65.83 50.05 65.23 49.55 67.23 47.15 70.92 53.53 67.96 54.27"/><polygon class="cls-2" points="67.55 48.52 86.95 36.24 89.31 40.31 69.91 52.59 67.55 48.52"/><path d="M69.76,53.15,67,48.4,87.1,35.68l2.75,4.76ZM68.1,48.64l2,3.4,18.7-11.85-2-3.39Z"/><polygon points="68.93 50.9 68.54 50.22 87.93 37.94 88.32 38.62 68.93 50.9"/><path class="cls-3" d="M89.91,41.33l-3.54-6.11,2.37-1.51,3.54,6.11Zm-2.46-5.87,2.75,4.75,1-.63-2.75-4.75Z"/><polygon points="88.25 34.49 86.41 31.32 85.41 31.95 87.25 35.12 88.25 34.49"/><polygon points="93.23 43.09 91.39 39.92 90.39 40.56 92.23 43.73 93.23 43.09"/><polygon points="88.64 35.17 117.11 17.14 127.31 13.47 119.47 21.22 91 39.24 88.64 35.17"/><path class="cls-4" d="M62.18,54.71a2.1,2.1,0,0,1,.74-2.79,1.91,1.91,0,0,1,2.71.6,2.1,2.1,0,0,1-.74,2.79A1.92,1.92,0,0,1,62.18,54.71ZM64.94,53a1.14,1.14,0,0,0-1.62-.36,1.26,1.26,0,0,0-.45,1.67,1.14,1.14,0,0,0,1.62.36A1.26,1.26,0,0,0,64.94,53Z"/></g></g></svg>