<svg xmlns="http://www.w3.org/2000/svg" viewBox="0 0 248.32 75.29"><defs><style>.cls-1{fill:#ffd468;stroke-width:8px;}.cls-1,.cls-3{stroke:#000;}.cls-1,.cls-3,.cls-4{stroke-miterlimit:10;}.cls-2{fill:#f1781a;}.cls-4{fill:none;stroke:#f1781a;}.cls-5{fill:#ff2b06;}</style></defs><title>Fichier 63</title><g id="Calque_2" data-name="Calque 2"><g id="Calque_1-2" data-name="Calque 1"><polygon class="cls-1" points="229.68 71.29 4.86 71.29 17.98 4 243.42 4 229.68 71.29"/><ellipse cx="71.43" cy="59.15" rx="4.86" ry="4.59" transform="translate(-16.99 87.14) rotate(-57.19)"/><polygon points="75.82 59.59 75.61 58.76 77.59 58.14 74.52 53.5 73.26 55.21 72.59 54.71 74.58 52.01 78.95 58.61 75.82 59.59"/><polygon class="cls-2" points="75.02 53.46 95.01 39.05 97.8 43.26 77.81 57.67 75.02 53.46"/><path d="M77.68,58.28l-3.25-4.92L95.14,38.44l3.25,4.92ZM75.6,53.55l2.33,3.51L97.21,43.17l-2.32-3.52Z"/><polygon points="76.64 55.92 76.18 55.21 96.18 40.8 96.64 41.51 76.64 55.92"/><path class="cls-3" d="M98.51,44.31,94.33,38l2.45-1.77L101,42.54Zm-3-6.13,3.26,4.91,1-.74-3.25-4.91Z"/><polygon points="96.3 37.09 94.12 33.8 93.09 34.55 95.26 37.83 96.3 37.09"/><polygon points="102.19 45.99 100.02 42.71 98.98 43.45 101.15 46.73 102.19 45.99"/><polygon points="96.76 37.79 126.11 16.64 136.81 12.04 128.9 20.85 99.55 42 96.76 37.79"/><path class="cls-4" d="M69.66,60.43a2.24,2.24,0,0,1,.61-3,2,2,0,0,1,2.94.47,2.26,2.26,0,0,1-.61,3A2.05,2.05,0,0,1,69.66,60.43Zm2.84-2a1.22,1.22,0,0,0-1.76-.28,1.34,1.34,0,0,0-.37,1.82,1.23,1.23,0,0,0,1.76.29A1.37,1.37,0,0,0,72.5,58.38Z"/><path class="cls-5" d="M140,58.9c7.76-1.19,24.37-2.39,36.55-20-2.9,1.39-3.15,1.75-5,1.75,8.38-7.51,11.71-12.79,11.62-22.53-9.08,2.22-15.86,7.3-24.77,18.17,1.16-4.25,1-4.35,1.55-5.82-3.9,3.91-14.64,16.51-15.89,21-.59-4.4-1.47-5.59-.85-7.59-2.26,6.22,2.16,11.64-10.49,16C139.47,58.75,140,58.9,140,58.9Z"/><path d="M125.28,60.52c15.5-4.54,15.71-7.7,16-11.71a18.18,18.18,0,0,1,.9-5.29l2,.65a6,6,0,0,0,.19,3.29c0,.2.09.41.13.63,3.54-6,12-15.63,14.71-18.38l3.24-3.26-1.54,4.33a13.38,13.38,0,0,0-.42,1.41c7.82-8.88,14.17-13.09,22.43-15.11l1.26-.3v1.3c.09,8.94-2.81,14.31-8.57,20.1l.51-.24,3.47-1.66-2.18,3.17c-11.61,16.82-27.19,19-35.56,20.22l-1.68.25h-.33c-.32,0-1.72.11-14,2.59Zm16.23-2.89c7.49-1.06,21-3,31.77-16.18a7.12,7.12,0,0,1-1.81.19h-2.68l2-1.79c8.28-7.41,11.07-12.37,11.27-20.42-8.14,2.29-14.49,7.16-22.94,17.48l-3.05,3.73L157.33,36c.2-.73.36-1.34.49-1.85C153,39.49,145.91,48.35,145,51.73l-1.34,4.86L143,51.88a9.1,9.1,0,0,1-4,6c.42,0,.68-.05.86-.05Z"/><path d="M144,58.81c13.87-7.33,26.57-21.14,27.36-24.16-9.06,9.28-13.93,17.46-34.3,24.42"/></g></g></svg>