<svg xmlns="http://www.w3.org/2000/svg" viewBox="0 0 248.32 75.29"><defs><style>.cls-1{fill:#ffd468;stroke-width:8px;}.cls-1,.cls-4{stroke:#000;}.cls-1,.cls-4,.cls-5{stroke-miterlimit:10;}.cls-2{fill:#3b28fa;}.cls-3{fill:#f1781a;}.cls-5{fill:none;stroke:#f1781a;}</style></defs><title>Fichier 66</title><g id="Calque_2" data-name="Calque 2"><g id="Calque_1-2" data-name="Calque 1"><polygon class="cls-1" points="229.68 71.29 4.86 71.29 17.98 4 243.42 4 229.68 71.29"/><path class="cls-2" d="M131.65,57.49c8.4,0,26.19,1.46,42-15.24-3.29,1-3.62,1.34-5.61,1,10.11-6.58,14.5-11.63,16-22-10,.85-18,5.13-29.2,15.18,1.92-4.31,1.8-4.44,2.59-5.91-4.77,3.51-18.21,15.09-20.27,19.67.1-4.75-.64-6.16.34-8.18-3.4,6.22.38,12.68-13.73,15.26C131.16,57.25,131.65,57.49,131.65,57.49Z"/><path d="M115.84,56.8c17.16-2.26,17.9-5.58,18.84-9.79a19.63,19.63,0,0,1,1.82-5.45l2,1c-.49,1-.44,1.84-.34,3.5,0,.22,0,.45,0,.69,4.73-5.8,15.23-14.59,18.59-17.06l4-2.91-2.34,4.33a13.76,13.76,0,0,0-.68,1.42c9.74-8.12,17.16-11.54,26.23-12.32l1.39-.12-.2,1.38c-1.38,9.48-5.33,14.69-12.38,19.89l.59-.18,4-1.18-2.84,3c-15.05,15.91-31.9,15.71-41,15.6l-1.82,0-.35-.05c-.34,0-1.84-.16-15.24.45Zm17.66-.4c8.11.1,22.72.28,36.3-11.94a7.48,7.48,0,0,1-2-.09L165,43.92l2.41-1.57c10-6.49,13.75-11.28,15.28-19.78-9,1.09-16.51,5.22-27.15,14.76l-3.84,3.45,2.09-4.72.83-1.88c-6,4.9-14.95,13.11-16.49,16.54l-2.22,4.93.1-5.1a9.72,9.72,0,0,1-5.19,5.75,7.73,7.73,0,0,1,.92.09Z"/><path d="M135.91,58.05c15.89-5.5,31.61-18,32.93-21.1-11.11,8.34-17.6,16.21-40.31,20.24"/><ellipse cx="71.43" cy="59.15" rx="4.86" ry="4.59" transform="translate(-16.99 87.14) rotate(-57.19)"/><polygon points="75.82 59.59 75.61 58.76 77.59 58.14 74.52 53.5 73.26 55.21 72.59 54.71 74.58 52.01 78.95 58.61 75.82 59.59"/><polygon class="cls-3" points="75.02 53.46 95.01 39.05 97.8 43.26 77.81 57.67 75.02 53.46"/><path d="M77.68,58.28l-3.25-4.92L95.14,38.44l3.25,4.92ZM75.6,53.55l2.33,3.51L97.21,43.17l-2.32-3.52Z"/><polygon points="76.64 55.92 76.18 55.21 96.18 40.8 96.64 41.51 76.64 55.92"/><path class="cls-4" d="M98.51,44.31,94.33,38l2.45-1.77L101,42.54Zm-3-6.13,3.26,4.91,1-.74-3.25-4.91Z"/><polygon points="96.3 37.09 94.12 33.8 93.09 34.55 95.26 37.83 96.3 37.09"/><polygon points="102.19 45.99 100.02 42.71 98.98 43.45 101.15 46.73 102.19 45.99"/><polygon points="96.76 37.79 126.11 16.64 136.81 12.04 128.9 20.85 99.55 42 96.76 37.79"/><path class="cls-5" d="M69.66,60.43a2.24,2.24,0,0,1,.61-3,2,2,0,0,1,2.94.47,2.26,2.26,0,0,1-.61,3A2.05,2.05,0,0,1,69.66,60.43Zm2.84-2a1.22,1.22,0,0,0-1.76-.28,1.34,1.34,0,0,0-.37,1.82,1.23,1.23,0,0,0,1.76.29A1.37,1.37,0,0,0,72.5,58.38Z"/></g></g></svg>