<svg xmlns="http://www.w3.org/2000/svg" viewBox="0 0 248.32 75.29"><defs><style>.cls-1{fill:#ffd468;stroke-width:8px;}.cls-1,.cls-3{stroke:#000;}.cls-1,.cls-3,.cls-4{stroke-miterlimit:10;}.cls-2{fill:#f1781a;}.cls-4{fill:none;stroke:#f1781a;}</style></defs><title>Fichier 80</title><g id="Calque_2" data-name="Calque 2"><g id="Calque_1-2" data-name="Calque 1"><polygon class="cls-1" points="229.68 71.29 4.86 71.29 17.98 4 243.42 4 229.68 71.29"/><ellipse cx="91.23" cy="56.29" rx="4.86" ry="4.59" transform="translate(-8.11 96.58) rotate(-53.75)"/><polygon points="95.58 56.99 95.42 56.15 97.43 55.65 94.65 50.83 93.29 52.46 92.65 51.92 94.8 49.34 98.76 56.2 95.58 56.99"/><polygon class="cls-2" points="95.15 50.82 115.97 37.63 118.5 42.01 97.68 55.19 95.15 50.82"/><path d="M97.52,55.79l-3-5.1L116.13,37l3,5.11ZM95.73,51l2.11,3.64,20.08-12.71-2.11-3.65Z"/><polygon points="96.62 53.37 96.2 52.64 117.03 39.45 117.45 40.18 96.62 53.37"/><path class="cls-3" d="M119.15,43.09l-3.8-6.56,2.55-1.61,3.8,6.56Zm-2.64-6.3,2.95,5.11,1.07-.68-3-5.11Z"/><polygon points="117.37 35.75 115.4 32.34 114.32 33.02 116.29 36.43 117.37 35.75"/><polygon points="122.72 44.99 120.74 41.58 119.67 42.26 121.64 45.67 122.72 44.99"/><polygon points="117.79 36.48 148.36 17.13 159.31 13.18 150.89 21.5 120.32 40.85 117.79 36.48"/><path class="cls-4" d="M89.38,57.46a2.25,2.25,0,0,1,.79-3,2.06,2.06,0,0,1,2.91.65,2.27,2.27,0,0,1-.8,3A2,2,0,0,1,89.38,57.46Zm3-1.88a1.25,1.25,0,0,0-1.75-.39,1.36,1.36,0,0,0-.47,1.8,1.23,1.23,0,0,0,1.74.39A1.36,1.36,0,0,0,92.34,55.58Z"/></g></g></svg>