<?xml version="1.0" encoding="utf-8"?>
<!-- Generator: Adobe Illustrator 23.0.1, SVG Export Plug-In . SVG Version: 6.00 Build 0)  -->
<svg version="1.1" id="Calque_1" xmlns="http://www.w3.org/2000/svg" xmlns:xlink="http://www.w3.org/1999/xlink" x="0px" y="0px"
	 viewBox="0 0 841.89 595.28" style="enable-background:new 0 0 841.89 595.28;" xml:space="preserve">
<style type="text/css">
	.st0{fill:#E73925;}
	.st1{fill:#020203;}
	.st2{fill:#FFD568;}
	.st3{fill:none;stroke:#020203;stroke-miterlimit:10;}
	.st4{fill:#020203;stroke:#020203;stroke-miterlimit:10;}
</style>
<rect x="390.64" y="231.21" class="st0" width="34.75" height="108.34"/>
<g>
	
		<ellipse transform="matrix(1 -6.639679e-03 6.639679e-03 1 -2.1582 2.7206)" class="st1" cx="408.67" cy="326.41" rx="4.81" ry="5.17"/>
	<polygon class="st1" points="411.68,322.71 410.85,322.42 411.52,320.27 405.74,320.31 406.43,322.45 405.61,322.75 404.51,319.38 
		412.73,319.32 	"/>
	<g>
		
			<rect x="405.91" y="293.37" transform="matrix(1 -6.640022e-03 6.640022e-03 1 -2.0268 2.7195)" class="st2" width="5.25" height="26.45"/>
		<path class="st1" d="M411.69,320.27l-6.12,0.04l-0.18-27.39l6.12-0.04L411.69,320.27z M406.44,319.37l4.37-0.03l-0.17-25.51
			l-4.37,0.03L406.44,319.37z"/>
	</g>
	<path class="st3" d="M403.51,318.94"/>
	
		<rect x="408.1" y="293.37" transform="matrix(1 -6.640076e-03 6.640076e-03 1 -2.0268 2.7195)" class="st1" width="0.87" height="26.45"/>
	<path class="st4" d="M412.39,293.33l-7.87,0.05l-0.02-3.24l7.87-0.05L412.39,293.33z M405.38,292.43l6.12-0.04l-0.01-1.36
		l-6.12,0.04L405.38,292.43z"/>
	
		<rect x="400.85" y="291.09" transform="matrix(1 -6.640076e-03 6.640076e-03 1 -1.9285 2.6817)" class="st1" width="4.09" height="1.37"/>
	
		<rect x="411.94" y="291.02" transform="matrix(1 -6.640076e-03 6.640076e-03 1 -1.9278 2.7553)" class="st1" width="4.09" height="1.37"/>
	<polygon class="st1" points="405.81,291.07 405.55,252.25 408.1,239.93 410.8,252.21 411.06,291.04 	"/>
	<g>
		
			<ellipse transform="matrix(1 -6.639679e-03 6.639679e-03 1 -2.1582 2.7206)" class="st2" cx="408.67" cy="326.41" rx="1.75" ry="1.88"/>
		<path class="st1" d="M408.69,328.76c-1.21,0.01-2.19-1.04-2.2-2.34c-0.01-1.3,0.97-2.36,2.17-2.37c1.21-0.01,2.19,1.04,2.2,2.34
			C410.87,327.69,409.89,328.75,408.69,328.76z M408.66,325c-0.72,0-1.31,0.64-1.3,1.42c0.01,0.78,0.6,1.41,1.32,1.4
			c0.72,0,1.31-0.64,1.3-1.42C409.98,325.62,409.38,324.99,408.66,325z"/>
	</g>
</g>
</svg>
