<svg xmlns="http://www.w3.org/2000/svg" viewBox="0 0 248.32 75.29"><defs><style>.cls-1{fill:#ffd468;stroke-width:8px;}.cls-1,.cls-3{stroke:#000;}.cls-1,.cls-3,.cls-4,.cls-6{stroke-miterlimit:10;}.cls-2{fill:#ff2b06;}.cls-4,.cls-6{fill:none;}.cls-4{stroke:#ff2b06;}.cls-5{fill:#f1781a;}.cls-6{stroke:#f1781a;}</style></defs><title>Fichier 68</title><g id="Calque_2" data-name="Calque 2"><g id="Calque_1-2" data-name="Calque 1"><polygon class="cls-1" points="229.68 71.29 4.86 71.29 17.98 4 243.42 4 229.68 71.29"/><ellipse cx="72.91" cy="58.27" rx="4.55" ry="4.23" transform="translate(-20.42 59.67) rotate(-39.49)"/><polygon points="77.1 58.35 76.85 57.61 78.69 56.91 75.53 52.93 74.43 54.57 73.77 54.17 75.5 51.57 80.01 57.23 77.1 58.35"/><polygon class="cls-2" points="76 52.85 94.17 38.32 97.04 41.94 78.87 56.47 76 52.85"/><path d="M78.79,57l-3.36-4.21L94.25,37.76,97.6,42Zm-2.23-4.13,2.4,3,17.52-14-2.4-3Z"/><polygon points="77.67 54.96 77.19 54.36 95.36 39.83 95.84 40.43 77.67 54.96"/><path class="cls-3" d="M97.77,42.83l-4.32-5.42,2.23-1.78L100,41.05ZM94.58,37.5l3.36,4.21.93-.74-3.36-4.22Z"/><polygon points="95.27 36.45 93.03 33.64 92.09 34.39 94.33 37.2 95.27 36.45"/><polygon points="101.35 44.08 99.11 41.27 98.17 42.02 100.41 44.84 101.35 44.08"/><polygon points="95.75 37.05 122.42 15.73 132.31 10.78 125.3 19.34 98.63 40.67 95.75 37.05"/><path class="cls-4" d="M71.3,59.57a2.08,2.08,0,1,1,2.81.21A2,2,0,0,1,71.3,59.57Zm2.58-2.07a1.2,1.2,0,0,0-1.69-.13,1.22,1.22,0,0,0-.25,1.68,1.24,1.24,0,0,0,1.94-1.55Z"/><ellipse cx="115.43" cy="59.15" rx="4.86" ry="4.59" transform="translate(3.17 124.12) rotate(-57.19)"/><polygon points="119.82 59.59 119.61 58.76 121.59 58.14 118.52 53.5 117.26 55.21 116.59 54.71 118.58 52.01 122.95 58.61 119.82 59.59"/><polygon class="cls-5" points="119.02 53.46 139.01 39.05 141.8 43.26 121.81 57.67 119.02 53.46"/><path d="M121.68,58.28l-3.25-4.92,20.71-14.92,3.25,4.92Zm-2.08-4.73,2.33,3.51,19.28-13.89-2.32-3.52Z"/><polygon points="120.64 55.92 120.18 55.21 140.18 40.8 140.64 41.51 120.64 55.92"/><path class="cls-3" d="M142.51,44.31,138.33,38l2.45-1.77L145,42.54Zm-3-6.13,3.26,4.91,1-.74-3.25-4.91Z"/><polygon points="140.3 37.09 138.12 33.8 137.09 34.55 139.26 37.83 140.3 37.09"/><polygon points="146.19 45.99 144.01 42.71 142.98 43.45 145.15 46.73 146.19 45.99"/><polygon points="140.76 37.79 170.11 16.64 180.81 12.04 172.9 20.85 143.55 42 140.76 37.79"/><path class="cls-6" d="M113.66,60.43a2.24,2.24,0,0,1,.61-3,2,2,0,0,1,2.94.47,2.26,2.26,0,0,1-.61,3A2.05,2.05,0,0,1,113.66,60.43Zm2.84-2a1.22,1.22,0,0,0-1.76-.28,1.34,1.34,0,0,0-.37,1.82,1.23,1.23,0,0,0,1.76.29A1.37,1.37,0,0,0,116.5,58.38Z"/></g></g></svg>