<svg xmlns="http://www.w3.org/2000/svg" viewBox="0 0 248.32 75.29"><defs><style>.cls-1{fill:#ffd468;stroke-width:8px;}.cls-1,.cls-3{stroke:#000;}.cls-1,.cls-3,.cls-4,.cls-6{stroke-miterlimit:10;}.cls-2{fill:#3b28fa;}.cls-4,.cls-6{fill:none;}.cls-4{stroke:#3b28fa;}.cls-5{fill:#ff2b06;}.cls-6{stroke:#ff2b06;}</style></defs><title>Fichier 72</title><g id="Calque_2" data-name="Calque 2"><g id="Calque_1-2" data-name="Calque 1"><polygon class="cls-1" points="229.68 71.29 4.86 71.29 17.98 4 243.42 4 229.68 71.29"/><ellipse cx="117.69" cy="57.33" rx="4.56" ry="4.24" transform="translate(-11.66 77.49) rotate(-34.83)"/><polygon points="121.88 57.68 121.68 56.93 123.58 56.34 120.67 52.16 119.46 53.73 118.82 53.28 120.73 50.8 124.87 56.76 121.88 57.68"/><rect class="cls-2" x="120.37" y="45.04" width="23.33" height="4.63" transform="translate(-3.39 83.89) rotate(-34.83)"/><path d="M123.66,56.47,120.58,52l19.83-13.8,3.08,4.43Zm-2-4.27,2.2,3.16,18.47-12.85-2.2-3.16Z"/><rect x="120.37" y="46.97" width="23.33" height="0.77" transform="translate(-3.39 83.89) rotate(-34.83)"/><path class="cls-3" d="M143.6,43.54l-4-5.7L142,36.21l4,5.7ZM140.76,38l3.08,4.43,1-.68-3.09-4.44Z"/><rect x="139.39" y="34.06" width="1.2" height="3.61" transform="translate(4.6 86.38) rotate(-34.83)"/><rect x="144.98" y="42.08" width="1.2" height="3.61" transform="translate(1.01 91) rotate(-34.83)"/><polygon points="141.96 37.63 170.07 18.07 180.29 13.78 172.71 21.88 144.6 41.43 141.96 37.63"/><path class="cls-4" d="M116,58.52a2.08,2.08,0,1,1,2.81.4A2,2,0,0,1,116,58.52Zm2.72-1.9a1.25,1.25,0,0,0-2,1.42,1.25,1.25,0,0,0,2-1.42Z"/><ellipse cx="72.91" cy="58.27" rx="4.55" ry="4.23" transform="translate(-20.42 59.67) rotate(-39.49)"/><polygon points="77.1 58.35 76.85 57.61 78.69 56.91 75.53 52.93 74.43 54.57 73.77 54.17 75.5 51.57 80.01 57.23 77.1 58.35"/><polygon class="cls-5" points="76 52.85 94.17 38.32 97.04 41.94 78.87 56.47 76 52.85"/><path d="M78.79,57l-3.36-4.21L94.25,37.76,97.6,42Zm-2.23-4.13,2.4,3,17.52-14-2.4-3Z"/><polygon points="77.67 54.96 77.19 54.36 95.36 39.83 95.84 40.43 77.67 54.96"/><path class="cls-3" d="M97.77,42.83l-4.32-5.42,2.23-1.78L100,41.05ZM94.58,37.5l3.36,4.21.93-.74-3.36-4.22Z"/><polygon points="95.27 36.45 93.03 33.64 92.09 34.39 94.33 37.2 95.27 36.45"/><polygon points="101.35 44.08 99.11 41.27 98.17 42.02 100.41 44.84 101.35 44.08"/><polygon points="95.75 37.05 122.42 15.73 132.31 10.78 125.3 19.34 98.63 40.67 95.75 37.05"/><path class="cls-6" d="M71.3,59.57a2.08,2.08,0,1,1,2.81.21A2,2,0,0,1,71.3,59.57Zm2.58-2.07a1.2,1.2,0,0,0-1.69-.13,1.22,1.22,0,0,0-.25,1.68,1.24,1.24,0,0,0,1.94-1.55Z"/></g></g></svg>