<svg xmlns="http://www.w3.org/2000/svg" viewBox="0 0 248.32 75.29"><defs><style>.cls-1{fill:#ffd468;stroke-width:8px;}.cls-1,.cls-3{stroke:#000;}.cls-1,.cls-3,.cls-4{stroke-miterlimit:10;}.cls-2{fill:#ff2b06;}.cls-4{fill:none;stroke:#ff2b06;}</style></defs><title>Fichier 71</title><g id="Calque_2" data-name="Calque 2"><g id="Calque_1-2" data-name="Calque 1"><polygon class="cls-1" points="229.68 71.29 4.86 71.29 17.98 4 243.42 4 229.68 71.29"/><path class="cls-2" d="M135.18,58.41c7.74-1.28,24.33-2.67,36.31-20.46-2.88,1.41-3.13,1.78-5,1.8,8.3-7.6,11.56-12.93,11.36-22.66-9.06,2.32-15.78,7.49-24.56,18.46,1.11-4.26,1-4.36,1.48-5.84-3.85,4-14.45,16.68-15.64,21.21-.64-4.39-1.54-5.57-.94-7.58C136,49.59,140.48,55,127.87,59.49,134.69,58.27,135.18,58.41,135.18,58.41Z"/><path d="M120.52,60.2c15.45-4.71,15.63-7.88,15.85-11.9a18.12,18.12,0,0,1,.84-5.3l1.95.64a6,6,0,0,0,.23,3.28c.05.2.09.41.14.62C143,41.48,151.31,31.78,154,29l3.2-3.29-1.49,4.35a13.17,13.17,0,0,0-.41,1.41c7.72-9,14-13.26,22.26-15.36l1.25-.32,0,1.29c.19,8.94-2.65,14.34-8.34,20.21L171,37l3.45-1.7-2.14,3.19c-11.42,17-27,19.35-35.32,20.64l-1.68.27H135c-.32,0-1.72.13-14,2.75Zm16.2-3.07C144.2,56,157.67,53.9,168.3,40.57a7,7,0,0,1-1.81.21l-2.68,0,2-1.81c8.19-7.51,10.93-12.5,11-20.55-8.11,2.39-14.4,7.33-22.73,17.75l-3,3.76,1.21-4.66c.19-.73.34-1.34.47-1.86C148,38.85,141,47.79,140.11,51.19l-1.29,4.87-.68-4.71a9.09,9.09,0,0,1-3.89,6.09c.41,0,.68-.06.85-.06Z"/><path d="M139.19,58.27C153,50.78,165.52,36.82,166.27,33.8c-9,9.38-13.72,17.62-34,24.81"/><ellipse cx="72.91" cy="58.27" rx="4.55" ry="4.23" transform="translate(-20.42 59.67) rotate(-39.49)"/><polygon points="77.1 58.35 76.85 57.61 78.69 56.91 75.53 52.93 74.43 54.57 73.77 54.17 75.5 51.57 80.01 57.23 77.1 58.35"/><polygon class="cls-2" points="76 52.85 94.17 38.32 97.04 41.94 78.87 56.47 76 52.85"/><path d="M78.79,57l-3.36-4.21L94.25,37.76,97.6,42Zm-2.23-4.13,2.4,3,17.52-14-2.4-3Z"/><polygon points="77.67 54.96 77.19 54.36 95.36 39.83 95.84 40.43 77.67 54.96"/><path class="cls-3" d="M97.77,42.83l-4.32-5.42,2.23-1.78L100,41.05ZM94.58,37.5l3.36,4.21.93-.74-3.36-4.22Z"/><polygon points="95.27 36.45 93.03 33.64 92.09 34.39 94.33 37.2 95.27 36.45"/><polygon points="101.35 44.08 99.11 41.27 98.17 42.02 100.41 44.84 101.35 44.08"/><polygon points="95.75 37.05 122.42 15.73 132.31 10.78 125.3 19.34 98.63 40.67 95.75 37.05"/><path class="cls-4" d="M71.3,59.57a2.08,2.08,0,1,1,2.81.21A2,2,0,0,1,71.3,59.57Zm2.58-2.07a1.2,1.2,0,0,0-1.69-.13,1.22,1.22,0,0,0-.25,1.68,1.24,1.24,0,0,0,1.94-1.55Z"/></g></g></svg>