<svg xmlns="http://www.w3.org/2000/svg" viewBox="0 0 248.32 75.29"><defs><style>.cls-1{fill:#ffd468;stroke-width:8px;}.cls-1,.cls-3{stroke:#000;}.cls-1,.cls-3,.cls-4{stroke-miterlimit:10;}.cls-2{fill:#ff2b06;}.cls-4{fill:none;stroke:#ff2b06;}.cls-5{fill:#3b28fa;}</style></defs><title>Fichier 64</title><g id="Calque_2" data-name="Calque 2"><g id="Calque_1-2" data-name="Calque 1"><polygon class="cls-1" points="229.68 71.29 4.86 71.29 17.98 4 243.42 4 229.68 71.29"/><ellipse cx="77.91" cy="56.27" rx="4.55" ry="4.23" transform="translate(-18 62.39) rotate(-39.49)"/><polygon points="82.1 56.35 81.85 55.61 83.69 54.91 80.53 50.93 79.43 52.57 78.77 52.17 80.5 49.57 85.01 55.23 82.1 56.35"/><polygon class="cls-2" points="81 50.85 99.17 36.32 102.04 39.94 83.87 54.47 81 50.85"/><path d="M83.79,55l-3.36-4.21L99.25,35.76,102.6,40Zm-2.23-4.13,2.4,3,17.52-14-2.4-3Z"/><polygon points="82.67 52.96 82.19 52.36 100.36 37.83 100.84 38.43 82.67 52.96"/><path class="cls-3" d="M102.77,40.83l-4.32-5.42,2.23-1.78L105,39.05ZM99.58,35.5l3.36,4.21.93-.74-3.36-4.22Z"/><polygon points="100.27 34.45 98.03 31.64 97.09 32.39 99.33 35.2 100.27 34.45"/><polygon points="106.35 42.08 104.11 39.27 103.17 40.02 105.41 42.84 106.35 42.08"/><polygon points="100.75 35.05 127.42 13.73 137.31 8.78 130.29 17.34 103.63 38.67 100.75 35.05"/><path class="cls-4" d="M76.3,57.57a2.08,2.08,0,1,1,2.81.21A2,2,0,0,1,76.3,57.57Zm2.58-2.07a1.2,1.2,0,0,0-1.69-.13,1.22,1.22,0,0,0-.25,1.68,1.24,1.24,0,0,0,1.94-1.55Z"/><path class="cls-5" d="M138.65,52.49c8.4,0,26.19,1.46,42-15.24-3.29,1-3.62,1.34-5.61,1,10.11-6.58,14.5-11.63,16-22-10,.85-18,5.13-29.2,15.18,1.92-4.31,1.8-4.44,2.59-5.91-4.77,3.51-18.21,15.09-20.27,19.67.1-4.75-.64-6.16.34-8.18-3.4,6.22.38,12.68-13.73,15.26C138.16,52.25,138.65,52.49,138.65,52.49Z"/><path d="M122.84,51.8c17.16-2.26,17.9-5.58,18.84-9.79a19.63,19.63,0,0,1,1.82-5.45l2,1c-.49,1-.44,1.84-.34,3.5,0,.22,0,.45,0,.69,4.73-5.8,15.23-14.59,18.59-17.06l4-2.91-2.34,4.33a13.76,13.76,0,0,0-.68,1.42c9.74-8.12,17.16-11.54,26.23-12.32l1.39-.12-.2,1.38c-1.38,9.48-5.33,14.69-12.38,19.89l.59-.18,4-1.18-2.84,3c-15.05,15.91-31.9,15.71-41,15.6l-1.82,0-.35-.05c-.34,0-1.84-.16-15.24.45Zm17.66-.4c8.11.1,22.72.28,36.3-11.94a7.48,7.48,0,0,1-2-.09L172,38.92l2.41-1.57c10-6.49,13.75-11.28,15.28-19.78-9,1.09-16.51,5.22-27.15,14.76l-3.84,3.45,2.09-4.72.83-1.88c-6,4.9-14.95,13.11-16.49,16.54l-2.22,4.93.1-5.1a9.72,9.72,0,0,1-5.19,5.75,7.73,7.73,0,0,1,.92.09Z"/><path d="M142.91,53.05c15.89-5.5,31.61-18,32.93-21.1-11.11,8.34-17.6,16.21-40.31,20.24"/></g></g></svg>