<svg xmlns="http://www.w3.org/2000/svg" viewBox="0 0 248.32 75.29"><defs><style>.cls-1{fill:#ffd468;stroke-width:8px;}.cls-1,.cls-3{stroke:#000;}.cls-1,.cls-3,.cls-4{stroke-miterlimit:10;}.cls-2{fill:#ff2b06;}.cls-4{fill:none;stroke:#ff2b06;}.cls-5{fill:#f1781a;}</style></defs><title>Fichier 82</title><g id="Calque_2" data-name="Calque 2"><g id="Calque_1-2" data-name="Calque 1"><polygon class="cls-1" points="229.68 71.29 4.86 71.29 17.98 4 243.42 4 229.68 71.29"/><ellipse cx="77.91" cy="56.27" rx="4.55" ry="4.23" transform="translate(-18 62.39) rotate(-39.49)"/><polygon points="82.1 56.35 81.85 55.61 83.69 54.91 80.53 50.93 79.43 52.57 78.77 52.17 80.5 49.57 85.01 55.23 82.1 56.35"/><polygon class="cls-2" points="81 50.85 99.17 36.32 102.04 39.94 83.87 54.47 81 50.85"/><path d="M83.79,55l-3.36-4.21L99.25,35.76,102.6,40Zm-2.23-4.13,2.4,3,17.52-14-2.4-3Z"/><polygon points="82.67 52.96 82.19 52.36 100.36 37.83 100.84 38.43 82.67 52.96"/><path class="cls-3" d="M102.77,40.83l-4.32-5.42,2.23-1.78L105,39.05ZM99.58,35.5l3.36,4.21.93-.74-3.36-4.22Z"/><polygon points="100.27 34.45 98.03 31.64 97.09 32.39 99.33 35.2 100.27 34.45"/><polygon points="106.35 42.08 104.11 39.27 103.17 40.02 105.41 42.84 106.35 42.08"/><polygon points="100.75 35.05 127.42 13.73 137.31 8.78 130.29 17.34 103.63 38.67 100.75 35.05"/><path class="cls-4" d="M76.3,57.57a2.08,2.08,0,1,1,2.81.21A2,2,0,0,1,76.3,57.57Zm2.58-2.07a1.2,1.2,0,0,0-1.69-.13,1.22,1.22,0,0,0-.25,1.68,1.24,1.24,0,0,0,1.94-1.55Z"/><path class="cls-5" d="M142.31,56.16c8.26-.6,25.82-.45,40.13-18C179.27,39.4,179,39.76,177,39.6c9.45-7.19,13.4-12.46,14.13-22.7-9.75,1.56-17.3,6.33-27.58,17,1.57-4.37,1.44-4.49,2.12-6-4.43,3.79-16.8,16.12-18.49,20.76-.25-4.67-1.07-6-.25-8.05C144,47,148.21,53,134.54,56.59,141.82,56,142.31,56.16,142.31,56.16Z"/><path d="M126.75,56.62c16.69-3.46,17.17-6.77,17.79-11a19.39,19.39,0,0,1,1.4-5.49l2,.86c-.41,1-.3,1.84-.08,3.47,0,.21.06.43.09.67,4.23-6,13.9-15.42,17-18.08L168.64,24l-2,4.41a12,12,0,0,0-.57,1.45c9-8.67,16-12.56,24.87-14l1.35-.21-.1,1.36c-.67,9.41-4.17,14.8-10.72,20.41l.56-.22,3.79-1.44-2.56,3.15c-13.64,16.7-30.2,17.7-39.09,18.24l-1.8.12-.34,0c-.34,0-1.82,0-14.93,1.53ZM144.06,55c8-.49,22.32-1.36,34.77-14.33a7.37,7.37,0,0,1-1.92,0l-2.81-.24,2.25-1.71c9.33-7.09,12.69-12.06,13.57-20.51-8.75,1.72-15.83,6.3-25.59,16.43l-3.52,3.66,1.72-4.78c.27-.75.49-1.37.67-1.9-5.5,5.23-13.73,13.94-15,17.42l-1.83,5-.26-5a9.6,9.6,0,0,1-4.68,6,7.46,7.46,0,0,1,.91,0Z"/><path d="M146.54,56.4c15.2-6.53,29.73-20,30.81-23.08-10.31,9-16.11,17.18-38.12,22.76"/></g></g></svg>