<svg xmlns="http://www.w3.org/2000/svg" viewBox="0 0 248.32 75.29"><defs><style>.cls-1{fill:#ffd468;stroke-width:8px;}.cls-1,.cls-3{stroke:#000;}.cls-1,.cls-3,.cls-4{stroke-miterlimit:10;}.cls-2{fill:#ff2b06;}.cls-4{fill:none;stroke:#ff2b06;}</style></defs><title>Fichier 70</title><g id="Calque_2" data-name="Calque 2"><g id="Calque_1-2" data-name="Calque 1"><polygon class="cls-1" points="229.68 71.29 4.86 71.29 17.98 4 243.42 4 229.68 71.29"/><ellipse cx="92.91" cy="58.27" rx="4.55" ry="4.23" transform="translate(-15.85 72.39) rotate(-39.49)"/><polygon points="97.1 58.35 96.85 57.61 98.69 56.91 95.53 52.93 94.43 54.57 93.77 54.17 95.5 51.57 100.01 57.23 97.1 58.35"/><polygon class="cls-2" points="96 52.85 114.17 38.32 117.04 41.94 98.87 56.47 96 52.85"/><path d="M98.79,57l-3.36-4.21,18.82-15.05L117.6,42Zm-2.23-4.13,2.4,3,17.52-14-2.4-3Z"/><polygon points="97.67 54.96 97.19 54.36 115.36 39.83 115.84 40.43 97.67 54.96"/><path class="cls-3" d="M117.77,42.83l-4.32-5.42,2.23-1.78L120,41.05Zm-3.19-5.33,3.36,4.21.93-.74-3.36-4.22Z"/><polygon points="115.27 36.45 113.03 33.64 112.09 34.39 114.33 37.2 115.27 36.45"/><polygon points="121.35 44.08 119.11 41.27 118.17 42.02 120.41 44.84 121.35 44.08"/><polygon points="115.75 37.05 142.42 15.73 152.31 10.78 145.29 19.34 118.63 40.67 115.75 37.05"/><path class="cls-4" d="M91.3,59.57a2.08,2.08,0,1,1,2.81.21A2,2,0,0,1,91.3,59.57Zm2.58-2.07a1.2,1.2,0,0,0-1.69-.13,1.22,1.22,0,0,0-.25,1.68,1.24,1.24,0,0,0,1.94-1.55Z"/></g></g></svg>