<svg xmlns="http://www.w3.org/2000/svg" viewBox="0 0 248.32 75.29"><defs><style>.cls-1{fill:#ffd468;stroke-width:8px;}.cls-1,.cls-3{stroke:#000;}.cls-1,.cls-3,.cls-4,.cls-6{stroke-miterlimit:10;}.cls-2{fill:#3b28fa;}.cls-4,.cls-6{fill:none;}.cls-4{stroke:#3b28fa;}.cls-5{fill:#f1781a;}.cls-6{stroke:#f1781a;}</style></defs><title>Fichier 69</title><g id="Calque_2" data-name="Calque 2"><g id="Calque_1-2" data-name="Calque 1"><polygon class="cls-1" points="229.68 71.29 4.86 71.29 17.98 4 243.42 4 229.68 71.29"/><ellipse cx="72.01" cy="59.16" rx="4.56" ry="4.24" transform="translate(-21.17 57.69) rotate(-38.5)"/><polygon points="76.21 59.24 75.97 58.5 77.81 57.79 74.64 53.8 73.54 55.45 72.88 55.04 74.62 52.45 79.14 58.12 76.21 59.24"/><rect class="cls-2" x="74.02" y="45.96" width="23.33" height="4.63" transform="translate(-11.43 63.83) rotate(-38.5)"/><path d="M77.91,57.91l-3.36-4.22,18.9-15,3.37,4.22Zm-2.23-4.14,2.4,3,17.61-14-2.41-3Z"/><rect x="74.02" y="47.89" width="23.33" height="0.77" transform="matrix(0.78, -0.62, 0.62, 0.78, -11.43, 63.83)"/><path class="cls-3" d="M97,43.73l-4.32-5.44,2.23-1.78L99.22,42Zm-3.19-5.35,3.36,4.23.94-.75-3.36-4.22Z"/><rect x="92.29" y="34.5" width="1.2" height="3.61" transform="translate(-2.4 65.72) rotate(-38.5)"/><rect x="98.37" y="42.15" width="1.2" height="3.61" transform="translate(-5.84 71.17) rotate(-38.5)"/><polygon points="94.96 37.94 121.76 16.62 131.69 11.68 124.64 20.25 97.85 41.56 94.96 37.94"/><path class="cls-4" d="M70.39,60.45a2.08,2.08,0,0,1,3.24-2.59,2.08,2.08,0,0,1-3.24,2.59ZM73,58.38a1.2,1.2,0,0,0-1.69-.13,1.16,1.16,0,1,0,1.69.13Z"/><ellipse cx="115.43" cy="59.15" rx="4.86" ry="4.59" transform="translate(3.17 124.12) rotate(-57.19)"/><polygon points="119.82 59.59 119.61 58.76 121.59 58.14 118.52 53.5 117.26 55.21 116.59 54.71 118.58 52.01 122.95 58.61 119.82 59.59"/><polygon class="cls-5" points="119.02 53.46 139.01 39.05 141.8 43.26 121.81 57.67 119.02 53.46"/><path d="M121.68,58.28l-3.25-4.92,20.71-14.92,3.25,4.92Zm-2.08-4.73,2.33,3.51,19.28-13.89-2.32-3.52Z"/><polygon points="120.64 55.92 120.18 55.21 140.18 40.8 140.64 41.51 120.64 55.92"/><path class="cls-3" d="M142.51,44.31,138.33,38l2.45-1.77L145,42.54Zm-3-6.13,3.26,4.91,1-.74-3.25-4.91Z"/><polygon points="140.3 37.09 138.12 33.8 137.09 34.55 139.26 37.83 140.3 37.09"/><polygon points="146.19 45.99 144.01 42.71 142.98 43.45 145.15 46.73 146.19 45.99"/><polygon points="140.76 37.79 170.11 16.64 180.81 12.04 172.9 20.85 143.55 42 140.76 37.79"/><path class="cls-6" d="M113.66,60.43a2.24,2.24,0,0,1,.61-3,2,2,0,0,1,2.94.47,2.26,2.26,0,0,1-.61,3A2.05,2.05,0,0,1,113.66,60.43Zm2.84-2a1.22,1.22,0,0,0-1.76-.28,1.34,1.34,0,0,0-.37,1.82,1.23,1.23,0,0,0,1.76.29A1.37,1.37,0,0,0,116.5,58.38Z"/></g></g></svg>