<svg xmlns="http://www.w3.org/2000/svg" viewBox="0 0 248.32 75.29"><defs><style>.cls-1{fill:#ffd468;stroke-width:8px;}.cls-1,.cls-4{stroke:#000;}.cls-1,.cls-4,.cls-5{stroke-miterlimit:10;}.cls-2{fill:#f1781a;}.cls-3{fill:#3b28fa;}.cls-5{fill:none;stroke:#3b28fa;}</style></defs><title>Fichier 85</title><g id="Calque_2" data-name="Calque 2"><g id="Calque_1-2" data-name="Calque 1"><polygon class="cls-1" points="229.68 71.29 4.86 71.29 17.98 4 243.42 4 229.68 71.29"/><path class="cls-2" d="M118.31,58.16c8.26-.6,25.82-.45,40.13-18C155.27,41.4,155,41.76,153,41.6c9.45-7.19,13.4-12.46,14.13-22.7-9.75,1.56-17.3,6.33-27.58,17,1.57-4.37,1.44-4.49,2.12-6-4.43,3.79-16.8,16.12-18.49,20.76-.25-4.67-1.07-6-.25-8.05C120,49,124.21,55,110.54,58.59,117.82,58,118.31,58.16,118.31,58.16Z"/><path d="M102.75,58.62c16.69-3.46,17.17-6.77,17.79-11a19.39,19.39,0,0,1,1.4-5.49l2,.86c-.41,1-.3,1.84-.08,3.47,0,.21.06.43.09.67,4.23-6,13.9-15.42,17-18.08L144.64,26l-2,4.41a12,12,0,0,0-.57,1.45c9-8.67,16-12.56,24.87-14l1.35-.21-.1,1.36c-.67,9.41-4.17,14.8-10.72,20.41l.56-.22,3.79-1.44-2.56,3.15c-13.64,16.7-30.2,17.7-39.09,18.24l-1.8.12-.34,0c-.34,0-1.82,0-14.93,1.53ZM120.06,57c8-.49,22.32-1.36,34.77-14.33a7.37,7.37,0,0,1-1.92,0l-2.81-.24,2.25-1.71c9.33-7.09,12.69-12.06,13.57-20.51-8.75,1.72-15.83,6.3-25.59,16.43l-3.52,3.66,1.72-4.78c.27-.75.49-1.37.67-1.9-5.5,5.23-13.73,13.94-15,17.42l-1.83,5-.26-5a9.6,9.6,0,0,1-4.68,6,7.46,7.46,0,0,1,.91,0Z"/><path d="M122.54,58.4c15.2-6.53,29.73-20,30.81-23.08-10.31,9-16.11,17.18-38.12,22.76"/><ellipse cx="56.01" cy="59.16" rx="4.56" ry="4.24" transform="translate(-24.65 47.73) rotate(-38.5)"/><polygon points="60.21 59.24 59.97 58.5 61.81 57.79 58.64 53.8 57.54 55.45 56.88 55.04 58.62 52.45 63.13 58.12 60.21 59.24"/><rect class="cls-3" x="58.02" y="45.96" width="23.33" height="4.63" transform="translate(-14.91 53.87) rotate(-38.5)"/><path d="M61.91,57.91l-3.36-4.22,18.9-15,3.37,4.22Zm-2.23-4.14,2.4,3,17.61-14-2.41-3Z"/><rect x="58.02" y="47.89" width="23.33" height="0.77" transform="matrix(0.78, -0.62, 0.62, 0.78, -14.91, 53.87)"/><path class="cls-4" d="M81,43.73l-4.32-5.44,2.23-1.78L83.22,42Zm-3.19-5.35,3.36,4.23.94-.75-3.36-4.22Z"/><rect x="76.29" y="34.5" width="1.2" height="3.61" transform="translate(-5.88 55.76) rotate(-38.5)"/><rect x="82.37" y="42.15" width="1.2" height="3.61" transform="translate(-9.32 61.21) rotate(-38.5)"/><polygon points="78.96 37.94 105.76 16.62 115.69 11.68 108.64 20.25 81.85 41.56 78.96 37.94"/><path class="cls-5" d="M54.39,60.45a2.08,2.08,0,0,1,3.24-2.59,2.08,2.08,0,0,1-3.24,2.59ZM57,58.38a1.2,1.2,0,0,0-1.69-.13,1.16,1.16,0,1,0,1.69.13Z"/></g></g></svg>