<svg xmlns="http://www.w3.org/2000/svg" viewBox="0 0 248.32 75.29"><defs><style>.cls-1{fill:#ffd468;stroke-width:8px;}.cls-1,.cls-4{stroke:#000;}.cls-1,.cls-4,.cls-5{stroke-miterlimit:10;}.cls-2{fill:#ff2b06;}.cls-3{fill:#3b28fa;}.cls-5{fill:none;stroke:#3b28fa;}</style></defs><title>Fichier 73</title><g id="Calque_2" data-name="Calque 2"><g id="Calque_1-2" data-name="Calque 1"><polygon class="cls-1" points="229.68 71.29 4.86 71.29 17.98 4 243.42 4 229.68 71.29"/><path class="cls-2" d="M142,59.9c7.76-1.19,24.37-2.39,36.55-20-2.9,1.39-3.15,1.75-5,1.75,8.38-7.51,11.71-12.79,11.62-22.53-9.08,2.22-15.86,7.3-24.77,18.17,1.16-4.25,1-4.35,1.55-5.82-3.9,3.91-14.64,16.51-15.89,21-.59-4.4-1.47-5.59-.85-7.59-2.26,6.22,2.16,11.64-10.49,16C141.47,59.75,142,59.9,142,59.9Z"/><path d="M127.28,61.52c15.5-4.54,15.71-7.7,16-11.71a18.18,18.18,0,0,1,.9-5.29l2,.65a6,6,0,0,0,.19,3.29c0,.2.09.41.13.63,3.54-6,12-15.63,14.71-18.38l3.24-3.26-1.54,4.33a13.38,13.38,0,0,0-.42,1.41c7.82-8.88,14.17-13.09,22.43-15.11l1.26-.3v1.3c.09,8.94-2.81,14.31-8.57,20.1l.51-.24,3.47-1.66-2.18,3.17c-11.61,16.82-27.19,19-35.56,20.22l-1.68.25h-.33c-.32,0-1.72.11-14,2.59Zm16.23-2.89c7.49-1.06,21-3,31.77-16.18a7.12,7.12,0,0,1-1.81.19h-2.68l2-1.79c8.28-7.41,11.07-12.37,11.27-20.42-8.14,2.29-14.49,7.16-22.94,17.48l-3.05,3.73L159.33,37c.2-.73.36-1.34.49-1.85C155,40.49,147.91,49.35,147,52.73l-1.34,4.86L145,52.88a9.1,9.1,0,0,1-4,6c.42,0,.68-.05.86-.05Z"/><path d="M146,59.81c13.87-7.33,26.57-21.14,27.36-24.16-9.06,9.28-13.93,17.46-34.3,24.42"/><ellipse cx="72.01" cy="59.16" rx="4.56" ry="4.24" transform="translate(-21.17 57.69) rotate(-38.5)"/><polygon points="76.21 59.24 75.97 58.5 77.81 57.79 74.64 53.8 73.54 55.45 72.88 55.04 74.62 52.45 79.14 58.12 76.21 59.24"/><rect class="cls-3" x="74.02" y="45.96" width="23.33" height="4.63" transform="translate(-11.43 63.83) rotate(-38.5)"/><path d="M77.91,57.91l-3.36-4.22,18.9-15,3.37,4.22Zm-2.23-4.14,2.4,3,17.61-14-2.41-3Z"/><rect x="74.02" y="47.89" width="23.33" height="0.77" transform="matrix(0.78, -0.62, 0.62, 0.78, -11.43, 63.83)"/><path class="cls-4" d="M97,43.73l-4.32-5.44,2.23-1.78L99.22,42Zm-3.19-5.35,3.36,4.23.94-.75-3.36-4.22Z"/><rect x="92.29" y="34.5" width="1.2" height="3.61" transform="translate(-2.4 65.72) rotate(-38.5)"/><rect x="98.37" y="42.15" width="1.2" height="3.61" transform="translate(-5.84 71.17) rotate(-38.5)"/><polygon points="94.96 37.94 121.76 16.62 131.69 11.68 124.64 20.25 97.85 41.56 94.96 37.94"/><path class="cls-5" d="M70.39,60.45a2.08,2.08,0,0,1,3.24-2.59,2.08,2.08,0,0,1-3.24,2.59ZM73,58.38a1.2,1.2,0,0,0-1.69-.13,1.16,1.16,0,1,0,1.69.13Z"/></g></g></svg>