<svg xmlns="http://www.w3.org/2000/svg" viewBox="0 0 248.32 75.29"><defs><style>.cls-1{fill:#ffd468;stroke-width:8px;}.cls-1,.cls-3{stroke:#000;}.cls-1,.cls-3,.cls-4{stroke-miterlimit:10;}.cls-2{fill:#3b28fa;}.cls-4{fill:none;stroke:#3b28fa;}</style></defs><title>Fichier 77</title><g id="Calque_2" data-name="Calque 2"><g id="Calque_1-2" data-name="Calque 1"><polygon class="cls-1" points="229.68 71.29 4.86 71.29 17.98 4 243.42 4 229.68 71.29"/><path class="cls-2" d="M131.65,57.49c8.4,0,26.19,1.46,42-15.24-3.29,1-3.62,1.34-5.61,1,10.11-6.58,14.5-11.63,16-22-10,.85-18,5.13-29.2,15.18,1.92-4.31,1.8-4.44,2.59-5.91-4.77,3.51-18.21,15.09-20.27,19.67.1-4.75-.64-6.16.34-8.18-3.4,6.22.38,12.68-13.73,15.26C131.16,57.25,131.65,57.49,131.65,57.49Z"/><path d="M115.84,56.8c17.16-2.26,17.9-5.58,18.84-9.79a19.63,19.63,0,0,1,1.82-5.45l2,1c-.49,1-.44,1.84-.34,3.5,0,.22,0,.45,0,.69,4.73-5.8,15.23-14.59,18.59-17.06l4-2.91-2.34,4.33a13.76,13.76,0,0,0-.68,1.42c9.74-8.12,17.16-11.54,26.23-12.32l1.39-.12-.2,1.38c-1.38,9.48-5.33,14.69-12.38,19.89l.59-.18,4-1.18-2.84,3c-15.05,15.91-31.9,15.71-41,15.6l-1.82,0-.35-.05c-.34,0-1.84-.16-15.24.45Zm17.66-.4c8.11.1,22.72.28,36.3-11.94a7.48,7.48,0,0,1-2-.09L165,43.92l2.41-1.57c10-6.49,13.75-11.28,15.28-19.78-9,1.09-16.51,5.22-27.15,14.76l-3.84,3.45,2.09-4.72.83-1.88c-6,4.9-14.95,13.11-16.49,16.54l-2.22,4.93.1-5.1a9.72,9.72,0,0,1-5.19,5.75,7.73,7.73,0,0,1,.92.09Z"/><path d="M135.91,58.05c15.89-5.5,31.61-18,32.93-21.1-11.11,8.34-17.6,16.21-40.31,20.24"/><ellipse cx="70.69" cy="57.33" rx="4.56" ry="4.24" transform="translate(-20.08 50.64) rotate(-34.83)"/><polygon points="74.88 57.68 74.68 56.93 76.58 56.34 73.67 52.16 72.46 53.73 71.82 53.28 73.73 50.8 77.87 56.76 74.88 57.68"/><rect class="cls-2" x="73.37" y="45.04" width="23.33" height="4.63" transform="translate(-11.81 57.05) rotate(-34.83)"/><path d="M76.66,56.47,73.58,52l19.83-13.8,3.08,4.43Zm-2-4.27,2.2,3.16L95.37,42.51l-2.2-3.16Z"/><rect x="73.37" y="46.97" width="23.33" height="0.77" transform="translate(-11.81 57.05) rotate(-34.83)"/><path class="cls-3" d="M96.6,43.54l-4-5.7L95,36.21l4,5.7ZM93.76,38l3.08,4.43,1-.68-3.09-4.44Z"/><rect x="92.39" y="34.06" width="1.2" height="3.61" transform="translate(-3.82 59.53) rotate(-34.83)"/><rect x="97.98" y="42.08" width="1.2" height="3.61" transform="translate(-7.41 64.16) rotate(-34.83)"/><polygon points="94.96 37.63 123.07 18.07 133.29 13.78 125.71 21.88 97.61 41.43 94.96 37.63"/><path class="cls-4" d="M69,58.52a2.08,2.08,0,1,1,2.81.4A2,2,0,0,1,69,58.52Zm2.72-1.9a1.25,1.25,0,0,0-2,1.42,1.25,1.25,0,0,0,2-1.42Z"/></g></g></svg>