<svg xmlns="http://www.w3.org/2000/svg" viewBox="0 0 248.32 75.29"><defs><style>.cls-1{fill:#ffd468;stroke-width:8px;}.cls-1,.cls-3{stroke:#000;}.cls-1,.cls-3,.cls-4{stroke-miterlimit:10;}.cls-2{fill:#3b28fa;}.cls-4{fill:none;stroke:#3b28fa;}</style></defs><title>Fichier 76</title><g id="Calque_2" data-name="Calque 2"><g id="Calque_1-2" data-name="Calque 1"><polygon class="cls-1" points="229.68 71.29 4.86 71.29 17.98 4 243.42 4 229.68 71.29"/><ellipse cx="87.69" cy="56.33" rx="4.56" ry="4.24" transform="translate(-16.46 60.17) rotate(-34.83)"/><polygon points="91.88 56.68 91.68 55.93 93.58 55.34 90.67 51.16 89.46 52.73 88.82 52.28 90.73 49.8 94.87 55.76 91.88 56.68"/><rect class="cls-2" x="90.37" y="44.04" width="23.33" height="4.63" transform="translate(-8.2 66.58) rotate(-34.83)"/><path d="M93.66,55.47,90.58,51l19.83-13.8,3.08,4.43Zm-2-4.27,2.2,3.16,18.47-12.85-2.2-3.16Z"/><rect x="90.37" y="45.97" width="23.33" height="0.77" transform="translate(-8.2 66.58) rotate(-34.83)"/><path class="cls-3" d="M113.6,42.54l-4-5.7L112,35.21l4,5.7ZM110.76,37l3.08,4.43,1-.68-3.09-4.44Z"/><rect x="109.39" y="33.06" width="1.2" height="3.61" transform="translate(-0.21 69.06) rotate(-34.83)"/><rect x="114.98" y="41.08" width="1.2" height="3.61" transform="translate(-3.79 73.69) rotate(-34.83)"/><polygon points="111.96 36.63 140.07 17.07 150.29 12.78 142.71 20.88 114.61 40.43 111.96 36.63"/><path class="cls-4" d="M86,57.52a2.08,2.08,0,1,1,2.81.4A2,2,0,0,1,86,57.52Zm2.72-1.9a1.25,1.25,0,0,0-2,1.42,1.25,1.25,0,0,0,2-1.42Z"/></g></g></svg>