<?xml version="1.0" encoding="utf-8"?>
<!-- Generator: Adobe Illustrator 23.0.1, SVG Export Plug-In . SVG Version: 6.00 Build 0)  -->
<svg version="1.1" id="Calque_1" xmlns="http://www.w3.org/2000/svg" xmlns:xlink="http://www.w3.org/1999/xlink" x="0px" y="0px"
	 viewBox="0 0 841.89 595.28" style="enable-background:new 0 0 841.89 595.28;" xml:space="preserve">
<style type="text/css">
	.st0{fill:#020203;}
	.st1{fill:#FFD568;}
	.st2{fill:none;stroke:#020203;stroke-miterlimit:10;}
	.st3{fill:#020203;stroke:#020203;stroke-miterlimit:10;}
</style>
<g>
	<path class="st0" d="M186.95,221.32h-7l1.8-6.73h21.95l-1.8,6.73h-7l-4.59,17.06h-7.95L186.95,221.32z"/>
	<path class="st0" d="M205.43,214.59h7.95l-2.28,8.39h7.27l2.28-8.39h7.95l-6.39,23.79h-7.95l2.28-8.53h-7.27l-2.28,8.53h-7.95
		L205.43,214.59z"/>
	<path class="st0" d="M231.19,214.59h20.29l-1.77,6.52h-12.47l-0.65,2.41h11.62l-1.53,5.74h-11.62l-0.71,2.58h12.64l-1.73,6.52
		H224.8L231.19,214.59z"/>
	<path class="st1" d="M186.95,218.94h-7l1.8-6.73h21.95l-1.8,6.73h-7L190.31,236h-7.95L186.95,218.94z"/>
	<path class="st1" d="M205.43,212.22h7.95l-2.28,8.39h7.27l2.28-8.39h7.95L222.22,236h-7.95l2.28-8.53h-7.27L207,236h-7.95
		L205.43,212.22z"/>
	<path class="st1" d="M231.19,212.22h20.29l-1.77,6.52h-12.47l-0.65,2.41h11.62l-1.53,5.74h-11.62l-0.71,2.58h12.64l-1.73,6.52
		H224.8L231.19,212.22z"/>
</g>
<g>
	<path class="st0" d="M258.64,228.28c0-7.78,6.12-14.2,15.7-14.2c4.49,0,8.32,1.94,9.96,3.94l-4.96,5.1
		c-1.36-1.26-3.4-2.14-5.5-2.14c-4.52,0-7.2,3.09-7.2,6.93c0,2.96,2.14,4.42,4.62,4.42c0.85,0,1.53-0.14,2.07-0.37l0.78-2.55h-3.91
		l1.29-5.1h11.45l-3.4,12.13c-2.34,1.39-5.71,2.45-9.14,2.45C264.49,238.88,258.64,235.76,258.64,228.28z"/>
	<path class="st0" d="M287.96,214.59h9.28c4.38,0,7.17,0.95,8.77,2.55c1.33,1.33,1.87,3.09,1.87,4.96c0,3.7-1.94,6.9-6.63,8.36
		l3.3,7.92h-8.56l-2.65-6.8h-1.97l-1.83,6.8h-7.95L287.96,214.59z M295.74,225.9c2.65,0,4.04-1.22,4.04-2.72
		c0-0.48-0.17-0.92-0.51-1.26c-0.44-0.44-1.22-0.68-2.34-0.68h-2.82l-1.26,4.66H295.74z"/>
	<path class="st0" d="M312.19,214.59h20.29l-1.77,6.52h-12.47l-0.65,2.41h11.62l-1.53,5.74h-11.62l-0.71,2.58h12.64l-1.73,6.52
		H305.8L312.19,214.59z"/>
	<path class="st0" d="M343.24,214.42h7.88l3.6,23.96h-8.46l-0.41-3.19h-8.32l-2.07,3.19h-8.66L343.24,214.42z M345.42,229.54
		l-0.65-5.78l-3.7,5.78H345.42z"/>
	<path class="st0" d="M362.92,221.32h-7l1.8-6.73h21.95l-1.8,6.73h-7l-4.59,17.06h-7.95L362.92,221.32z"/>
	<path class="st1" d="M258.64,225.91c0-7.78,6.12-14.2,15.7-14.2c4.49,0,8.32,1.94,9.96,3.94l-4.96,5.1
		c-1.36-1.26-3.4-2.14-5.5-2.14c-4.52,0-7.2,3.09-7.2,6.93c0,2.96,2.14,4.42,4.62,4.42c0.85,0,1.53-0.14,2.07-0.37l0.78-2.55h-3.91
		l1.29-5.1h11.45l-3.4,12.13c-2.34,1.39-5.71,2.45-9.14,2.45C264.49,236.51,258.64,233.39,258.64,225.91z"/>
	<path class="st1" d="M287.96,212.22h9.28c4.38,0,7.17,0.95,8.77,2.55c1.33,1.33,1.87,3.09,1.87,4.96c0,3.7-1.94,6.9-6.63,8.36
		l3.3,7.92h-8.56l-2.65-6.8h-1.97l-1.83,6.8h-7.95L287.96,212.22z M295.74,223.53c2.65,0,4.04-1.22,4.04-2.72
		c0-0.48-0.17-0.92-0.51-1.26c-0.44-0.44-1.22-0.68-2.34-0.68h-2.82l-1.26,4.66H295.74z"/>
	<path class="st1" d="M312.19,212.22h20.29l-1.77,6.52h-12.47l-0.65,2.41h11.62l-1.53,5.74h-11.62l-0.71,2.58h12.64l-1.73,6.52
		H305.8L312.19,212.22z"/>
	<path class="st1" d="M343.24,212.05h7.88l3.6,23.96h-8.46l-0.41-3.19h-8.32l-2.07,3.19h-8.66L343.24,212.05z M345.42,227.17
		l-0.65-5.78l-3.7,5.78H345.42z"/>
	<path class="st1" d="M362.92,218.94h-7l1.8-6.73h21.95l-1.8,6.73h-7L366.28,236h-7.95L362.92,218.94z"/>
</g>
<g>
	<path class="st0" d="M443.78,228.45c0-6.49,5-14.37,15.26-14.37c5.13,0,8.77,2.72,9.75,6.93l-7.1,3.09
		c-0.51-1.94-1.9-2.89-3.7-2.89c-3.57,0-5.88,3.26-5.88,6.52c0,2.62,1.63,4.08,3.74,4.08c1.83,0,3.33-0.88,4.62-2.48l5.5,4.35
		c-2.38,3.13-5.84,5.2-10.91,5.2C448.4,238.88,443.78,234.84,443.78,228.45z"/>
	<path class="st0" d="M472.49,214.59h9.28c4.38,0,7.17,0.95,8.77,2.55c1.33,1.33,1.87,3.09,1.87,4.96c0,3.7-1.94,6.9-6.63,8.36
		l3.3,7.92h-8.56l-2.65-6.8h-1.97l-1.83,6.8h-7.95L472.49,214.59z M480.27,225.9c2.65,0,4.04-1.22,4.04-2.72
		c0-0.48-0.17-0.92-0.51-1.26c-0.44-0.44-1.22-0.68-2.34-0.68h-2.82l-1.26,4.66H480.27z"/>
	<path class="st0" d="M493.15,228.08c0-7.37,6.01-13.97,14-13.97c7,0,11.82,4.69,11.82,10.77c0,7.37-6.01,13.97-14,13.97
		C497.98,238.85,493.15,234.16,493.15,228.08z M510.99,225.6c0-2.51-1.53-4.49-4.38-4.49c-3.33,0-5.47,3.26-5.47,6.25
		c0,2.51,1.53,4.49,4.38,4.49C508.85,231.85,510.99,228.59,510.99,225.6z"/>
	<path class="st0" d="M516.97,234.53l4.55-5.44c2.72,2.28,5.5,3.36,8.02,3.36c1.02,0,1.73-0.37,1.73-1.05
		c0-0.75-0.44-0.99-3.91-2.28c-4.42-1.63-6.49-3.19-6.49-6.69c0-4.59,4.21-8.32,10.7-8.32c4.25,0,8.02,1.36,10.6,3.57l-4.55,5.44
		c-1.8-1.46-4.35-2.65-6.86-2.65c-1.02,0-1.73,0.27-1.73,0.95c0,0.71,0.51,0.85,3.81,2.07c4.04,1.5,6.63,3.19,6.63,6.83
		c0,4.79-3.94,8.53-10.77,8.53C523.97,238.85,519.86,237.15,516.97,234.53z"/>
	<path class="st0" d="M539.16,234.53l4.55-5.44c2.72,2.28,5.5,3.36,8.02,3.36c1.02,0,1.73-0.37,1.73-1.05
		c0-0.75-0.44-0.99-3.91-2.28c-4.42-1.63-6.49-3.19-6.49-6.69c0-4.59,4.21-8.32,10.7-8.32c4.25,0,8.02,1.36,10.6,3.57l-4.55,5.44
		c-1.8-1.46-4.35-2.65-6.86-2.65c-1.02,0-1.73,0.27-1.73,0.95c0,0.71,0.51,0.85,3.81,2.07c4.04,1.5,6.63,3.19,6.63,6.83
		c0,4.79-3.94,8.53-10.77,8.53C546.16,238.85,542.04,237.15,539.16,234.53z"/>
	<path class="st0" d="M567.83,214.59h7.95l-6.39,23.79h-7.95L567.83,214.59z"/>
	<path class="st0" d="M578.43,214.59h7.44l5.4,11.35l3.06-11.35h7.88l-6.39,23.79h-7.07l-5.64-11.82l-3.19,11.82h-7.88
		L578.43,214.59z"/>
	<path class="st0" d="M600.76,228.28c0-7.78,6.12-14.2,15.7-14.2c4.49,0,8.33,1.94,9.96,3.94l-4.96,5.1
		c-1.36-1.26-3.4-2.14-5.5-2.14c-4.52,0-7.2,3.09-7.2,6.93c0,2.96,2.14,4.42,4.62,4.42c0.85,0,1.53-0.14,2.07-0.37l0.78-2.55h-3.91
		l1.29-5.1h11.45l-3.4,12.13c-2.34,1.39-5.71,2.45-9.14,2.45C606.6,238.88,600.76,235.76,600.76,228.28z"/>
	<path class="st1" d="M443.78,226.08c0-6.49,5-14.37,15.26-14.37c5.13,0,8.77,2.72,9.75,6.93l-7.1,3.09
		c-0.51-1.94-1.9-2.89-3.7-2.89c-3.57,0-5.88,3.26-5.88,6.52c0,2.62,1.63,4.08,3.74,4.08c1.83,0,3.33-0.88,4.62-2.48l5.5,4.35
		c-2.38,3.13-5.84,5.2-10.91,5.2C448.4,236.51,443.78,232.47,443.78,226.08z"/>
	<path class="st1" d="M472.49,212.22h9.28c4.38,0,7.17,0.95,8.77,2.55c1.33,1.33,1.87,3.09,1.87,4.96c0,3.7-1.94,6.9-6.63,8.36
		l3.3,7.92h-8.56l-2.65-6.8h-1.97l-1.83,6.8h-7.95L472.49,212.22z M480.27,223.53c2.65,0,4.04-1.22,4.04-2.72
		c0-0.48-0.17-0.92-0.51-1.26c-0.44-0.44-1.22-0.68-2.34-0.68h-2.82l-1.26,4.66H480.27z"/>
	<path class="st1" d="M493.15,225.71c0-7.37,6.01-13.97,14-13.97c7,0,11.82,4.69,11.82,10.77c0,7.37-6.01,13.97-14,13.97
		C497.98,236.48,493.15,231.79,493.15,225.71z M510.99,223.23c0-2.51-1.53-4.49-4.38-4.49c-3.33,0-5.47,3.26-5.47,6.25
		c0,2.51,1.53,4.49,4.38,4.49C508.85,229.48,510.99,226.22,510.99,223.23z"/>
	<path class="st1" d="M516.97,232.16l4.55-5.44c2.72,2.28,5.5,3.36,8.02,3.36c1.02,0,1.73-0.37,1.73-1.05
		c0-0.75-0.44-0.99-3.91-2.28c-4.42-1.63-6.49-3.19-6.49-6.69c0-4.59,4.21-8.32,10.7-8.32c4.25,0,8.02,1.36,10.6,3.57l-4.55,5.44
		c-1.8-1.46-4.35-2.65-6.86-2.65c-1.02,0-1.73,0.27-1.73,0.95c0,0.71,0.51,0.85,3.81,2.07c4.04,1.5,6.63,3.19,6.63,6.83
		c0,4.79-3.94,8.53-10.77,8.53C523.97,236.48,519.86,234.78,516.97,232.16z"/>
	<path class="st1" d="M539.16,232.16l4.55-5.44c2.72,2.28,5.5,3.36,8.02,3.36c1.02,0,1.73-0.37,1.73-1.05
		c0-0.75-0.44-0.99-3.91-2.28c-4.42-1.63-6.49-3.19-6.49-6.69c0-4.59,4.21-8.32,10.7-8.32c4.25,0,8.02,1.36,10.6,3.57l-4.55,5.44
		c-1.8-1.46-4.35-2.65-6.86-2.65c-1.02,0-1.73,0.27-1.73,0.95c0,0.71,0.51,0.85,3.81,2.07c4.04,1.5,6.63,3.19,6.63,6.83
		c0,4.79-3.94,8.53-10.77,8.53C546.16,236.48,542.04,234.78,539.16,232.16z"/>
	<path class="st1" d="M567.83,212.22h7.95L569.4,236h-7.95L567.83,212.22z"/>
	<path class="st1" d="M578.43,212.22h7.44l5.4,11.35l3.06-11.35h7.88L595.83,236h-7.07l-5.64-11.82L579.93,236h-7.88L578.43,212.22z
		"/>
	<path class="st1" d="M600.76,225.91c0-7.78,6.12-14.2,15.7-14.2c4.49,0,8.33,1.94,9.96,3.94l-4.96,5.1
		c-1.36-1.26-3.4-2.14-5.51-2.14c-4.52,0-7.2,3.09-7.2,6.93c0,2.96,2.14,4.42,4.62,4.42c0.85,0,1.53-0.14,2.07-0.37l0.78-2.55h-3.91
		l1.29-5.1h11.45l-3.4,12.13c-2.34,1.39-5.71,2.45-9.14,2.45C606.6,236.51,600.76,233.39,600.76,225.91z"/>
</g>
<ellipse transform="matrix(0.7554 -0.6553 0.6553 0.7554 -54.1979 340.791)" class="st0" cx="429.36" cy="242.99" rx="3.27" ry="3.52"/>
<polygon class="st0" points="429.29,239.75 428.73,239.96 428.12,238.56 425.16,241.14 426.46,241.93 426.17,242.46 424.11,241.2 
	428.33,237.54 "/>
<g>
	
		<rect x="418.76" y="223.83" transform="matrix(0.7554 -0.6553 0.6553 0.7554 -49.6915 332.5222)" class="st1" width="3.57" height="17.98"/>
	<path class="st0" d="M428.21,238.49l-3.14,2.73l-12.2-14.06l3.14-2.73L428.21,238.49z M425.1,240.34l2.25-1.95l-11.36-13.1
		l-2.25,1.95L425.1,240.34z"/>
</g>
<path class="st2" d="M423.4,241.42"/>
<rect x="420.24" y="223.83" transform="matrix(0.7554 -0.6553 0.6553 0.7554 -49.6915 332.5222)" class="st0" width="0.59" height="17.98"/>
<path class="st3" d="M416.67,224.27l-4.04,3.51l-1.44-1.66l4.04-3.51L416.67,224.27z M412.65,226.9l3.14-2.73l-0.61-0.7l-3.14,2.73
	L412.65,226.9z"/>
<rect x="409.69" y="227.2" transform="matrix(0.7554 -0.6553 0.6553 0.7554 -48.6268 325.0613)" class="st0" width="2.78" height="0.93"/>
<rect x="415.38" y="222.26" transform="matrix(0.7554 -0.6553 0.6553 0.7554 -43.9989 327.5834)" class="st0" width="2.78" height="0.93"/>
<polygon class="st0" points="412.28,226.01 394.99,206.08 390.85,198.6 397.68,203.74 414.97,223.67 "/>
<g>
	
		<ellipse transform="matrix(0.7554 -0.6553 0.6553 0.7554 -54.1979 340.791)" class="st1" cx="429.36" cy="242.99" rx="1.19" ry="1.28"/>
	<path class="st0" d="M430.41,244.2c-0.62,0.54-1.59,0.43-2.17-0.23c-0.58-0.67-0.54-1.64,0.08-2.18c0.62-0.54,1.59-0.43,2.17,0.23
		C431.06,242.68,431.03,243.66,430.41,244.2z M428.74,242.26c-0.37,0.32-0.39,0.91-0.05,1.31c0.35,0.4,0.93,0.46,1.3,0.14
		c0.37-0.32,0.39-0.91,0.05-1.31C429.69,242.01,429.11,241.94,428.74,242.26z"/>
</g>
<g>
	<g>
		<path class="st1" d="M401.66,240.9c6-2.41,19.1-6.48,25.56-22.92c-2.07,1.65-2.2,1.99-3.71,2.34c5.31-7.59,6.99-12.46,5.1-20.25
			c-6.88,3.48-11.36,8.83-16.46,19.22c0.13-3.63,0.01-3.68,0.15-4.96c-2.39,3.87-8.65,15.99-8.81,19.85
			c-1.29-3.42-2.23-4.21-2.1-5.93c-0.64,5.41,3.92,8.93-5.41,14.83C401.24,240.87,401.66,240.9,401.66,240.9z"/>
		<path class="st0" d="M390.19,244.95c11.59-6.54,11.16-9.12,10.62-12.39c-0.23-1.37-0.46-2.79-0.27-4.41l1.69,0.16
			c-0.06,0.86,0.21,1.44,0.77,2.6c0.07,0.15,0.15,0.31,0.23,0.48c1.71-5.5,6.67-14.78,8.35-17.5l1.99-3.22l-0.43,3.76
			c-0.06,0.49-0.07,0.79-0.07,1.21c4.61-8.59,8.92-13.16,15.16-16.32l0.95-0.48l0.25,1.04c1.74,7.16,0.42,12.01-3.11,17.74
			c0.11-0.09,0.24-0.19,0.37-0.3l2.48-1.98l-1.16,2.95c-6.16,15.67-18.24,20.36-24.73,22.89l-1.31,0.51l-0.26,0.07
			c-0.26,0.07-1.36,0.41-10.74,4.7L390.19,244.95z M402.67,239.59c5.81-2.26,16.28-6.33,22.45-18.94c-0.38,0.2-0.81,0.35-1.41,0.49
			l-2.15,0.5l1.27-1.81c5.25-7.5,6.56-12,5.21-18.49c-6.1,3.36-10.28,8.46-15.12,18.32l-1.75,3.56l0.14-3.96
			c0.02-0.62,0.04-1.14,0.05-1.58c-2.84,5.2-6.89,13.64-7.01,16.53l-0.17,4.15l-1.39-3.66c0.08,1.75-0.29,3.57-2.05,5.59
			c0.33-0.11,0.54-0.17,0.68-0.2L402.67,239.59z"/>
	</g>
	<path class="st0" d="M404.86,240.07c9.75-8.48,17.35-21.94,17.42-24.5c-5.52,9.14-7.89,16.62-22.93,26.01"/>
</g>
</svg>
