<svg xmlns="http://www.w3.org/2000/svg" viewBox="0 0 248.32 75.29"><defs><style>.cls-1{fill:#ffd468;stroke:#000;stroke-miterlimit:10;stroke-width:8px;}.cls-2{fill:#f1781a;}.cls-3{fill:#3b28fa;}</style></defs><title>Fichier 62</title><g id="Calque_2" data-name="Calque 2"><g id="Calque_1-2" data-name="Calque 1"><polygon class="cls-1" points="229.68 71.29 4.86 71.29 17.98 4 243.42 4 229.68 71.29"/><path class="cls-2" d="M75.31,55.16c8.26-.6,25.82-.45,40.13-18C112.27,38.4,112,38.76,110,38.6c9.45-7.19,13.4-12.46,14.13-22.7-9.75,1.56-17.3,6.33-27.58,17,1.57-4.37,1.44-4.49,2.12-6C94.24,30.7,81.87,43,80.18,47.67c-.25-4.67-1.07-6-.25-8.05C77,46,81.21,52,67.54,55.59,74.82,55,75.31,55.16,75.31,55.16Z"/><path d="M59.75,55.62c16.69-3.46,17.17-6.77,17.79-11a19.39,19.39,0,0,1,1.4-5.49l2,.86c-.41,1-.3,1.84-.08,3.47,0,.21.06.43.09.67,4.23-6,13.9-15.42,17-18.08L101.64,23l-2,4.41a12,12,0,0,0-.57,1.45c9-8.67,16-12.56,24.87-14l1.35-.21-.1,1.36c-.67,9.41-4.17,14.8-10.72,20.41l.56-.22,3.79-1.44-2.56,3.15c-13.64,16.7-30.2,17.7-39.09,18.24l-1.8.12-.34,0c-.34,0-1.82,0-14.93,1.53ZM77.06,54c8-.49,22.32-1.36,34.77-14.33a7.37,7.37,0,0,1-1.92,0l-2.81-.24,2.25-1.71c9.33-7.09,12.69-12.06,13.57-20.51-8.75,1.72-15.83,6.3-25.59,16.43l-3.52,3.66,1.72-4.78c.27-.75.49-1.37.67-1.9-5.5,5.23-13.73,13.94-15,17.42l-1.83,5-.26-5a9.6,9.6,0,0,1-4.68,6,7.46,7.46,0,0,1,.91,0Z"/><path d="M79.54,55.4c15.2-6.53,29.73-20,30.81-23.08C100,41.31,94.24,49.5,72.23,55.08"/><path class="cls-3" d="M140.13,53.93c8.38-.65,26.22-.62,40.64-18.51-3.2,1.25-3.5,1.62-5.51,1.47,9.55-7.36,13.53-12.74,14.21-23.15-9.89,1.64-17.54,6.54-27.91,17.45,1.57-4.45,1.44-4.57,2.11-6.1C159.19,29,146.71,41.57,145,46.3c-.28-4.75-1.13-6.09-.31-8.18-2.9,6.46,1.39,12.61-12.48,16.3C139.62,53.73,140.13,53.93,140.13,53.93Z"/><path d="M124.32,54.49c16.92-3.61,17.4-7,18-11.24a19.57,19.57,0,0,1,1.39-5.58l2,.85c-.41,1-.29,1.88-.06,3.53,0,.22.06.44.09.68C150,36.57,159.8,27,163,24.26L166.67,21l-2,4.5a13.92,13.92,0,0,0-.56,1.47c9.06-8.87,16.19-12.86,25.17-14.36l1.37-.22-.09,1.38c-.62,9.57-4.15,15.07-10.76,20.81l.57-.23,3.84-1.49-2.59,3.21C167.89,53.17,151.07,54.29,142,54.9l-1.82.13-.35,0c-.34,0-1.85,0-15.16,1.65Zm17.57-1.79c8.09-.54,22.66-1.52,35.23-14.78a6.67,6.67,0,0,1-1.94.06l-2.86-.21L174.59,36c9.44-7.26,12.82-12.34,13.66-20.92-8.87,1.79-16,6.5-25.9,16.85l-3.55,3.74,1.72-4.86c.27-.77.49-1.4.67-1.94-5.55,5.35-13.86,14.25-15.13,17.79l-1.83,5.08-.29-5.08a9.75,9.75,0,0,1-4.72,6.14c.45,0,.73,0,.92,0Z"/><path d="M144.42,54.15c15.41-6.73,30.08-20.48,31.16-23.64-10.42,9.2-16.27,17.55-38.59,23.37"/></g></g></svg>