<svg xmlns="http://www.w3.org/2000/svg" viewBox="0 0 248.32 75.29"><defs><style>.cls-1{fill:#ffd468;stroke:#000;stroke-miterlimit:10;stroke-width:8px;}.cls-2{fill:#ff2b06;}.cls-3{fill:#f1781a;}</style></defs><title>Fichier 61</title><g id="Calque_2" data-name="Calque 2"><g id="Calque_1-2" data-name="Calque 1"><polygon class="cls-1" points="229.68 71.29 4.86 71.29 17.98 4 243.42 4 229.68 71.29"/><path class="cls-2" d="M139,56.9c7.76-1.19,24.37-2.39,36.55-20-2.9,1.39-3.15,1.75-5,1.75,8.38-7.51,11.71-12.79,11.62-22.53-9.08,2.22-15.86,7.3-24.77,18.17,1.16-4.25,1-4.35,1.55-5.82-3.9,3.91-14.64,16.51-15.89,21-.59-4.4-1.47-5.59-.85-7.59-2.26,6.22,2.16,11.64-10.49,16C138.47,56.75,139,56.9,139,56.9Z"/><path d="M124.28,58.52c15.5-4.54,15.71-7.7,16-11.71a18.18,18.18,0,0,1,.9-5.29l2,.65a6,6,0,0,0,.19,3.29c0,.2.09.41.13.63,3.54-6,12-15.63,14.71-18.38l3.24-3.26-1.54,4.33a13.38,13.38,0,0,0-.42,1.41c7.82-8.88,14.17-13.09,22.43-15.11l1.26-.3v1.3c.09,8.94-2.81,14.31-8.57,20.1l.51-.24,3.47-1.66-2.18,3.17c-11.61,16.82-27.19,19-35.56,20.22l-1.68.25h-.33c-.32,0-1.72.11-14,2.59Zm16.23-2.89c7.49-1.06,21-3,31.77-16.18a7.12,7.12,0,0,1-1.81.19h-2.68l2-1.79c8.28-7.41,11.07-12.37,11.27-20.42-8.14,2.29-14.49,7.16-22.94,17.48l-3.05,3.73L156.33,34c.2-.73.36-1.34.49-1.85C152,37.49,144.91,46.35,144,49.73l-1.34,4.86L142,49.88a9.1,9.1,0,0,1-4,6c.42,0,.68-.05.86-.05Z"/><path d="M143,56.81c13.87-7.33,26.57-21.14,27.36-24.16-9.06,9.28-13.93,17.46-34.3,24.42"/><path class="cls-3" d="M81.31,54.16c8.26-.6,25.82-.45,40.13-18C118.27,37.4,118,37.76,116,37.6c9.45-7.19,13.4-12.46,14.13-22.7-9.75,1.56-17.3,6.33-27.58,17,1.57-4.37,1.44-4.49,2.12-6C100.24,29.7,87.87,42,86.18,46.67c-.25-4.67-1.07-6-.25-8.05C83,45,87.21,51,73.54,54.59,80.82,54,81.31,54.16,81.31,54.16Z"/><path d="M65.75,54.62c16.69-3.46,17.17-6.77,17.79-11a19.39,19.39,0,0,1,1.4-5.49l2,.86c-.41,1-.3,1.84-.08,3.47,0,.21.06.43.09.67,4.23-6,13.9-15.42,17-18.08L107.64,22l-2,4.41a12,12,0,0,0-.57,1.45c9-8.67,16-12.56,24.87-14l1.35-.21-.1,1.36c-.67,9.41-4.17,14.8-10.72,20.41l.56-.22,3.79-1.44-2.56,3.15c-13.64,16.7-30.2,17.7-39.09,18.24l-1.8.12-.34,0c-.34,0-1.82,0-14.93,1.53ZM83.06,53c8-.49,22.32-1.36,34.77-14.33a7.37,7.37,0,0,1-1.92,0l-2.81-.24,2.25-1.71c9.33-7.09,12.69-12.06,13.57-20.51-8.75,1.72-15.83,6.3-25.59,16.43l-3.52,3.66,1.72-4.78c.27-.75.49-1.37.67-1.9-5.5,5.23-13.73,13.94-15,17.42l-1.83,5-.26-5a9.6,9.6,0,0,1-4.68,6,7.46,7.46,0,0,1,.91,0Z"/><path d="M85.54,54.4c15.2-6.53,29.73-20,30.81-23.08-10.31,9-16.11,17.18-38.12,22.76"/></g></g></svg>