<svg xmlns="http://www.w3.org/2000/svg" viewBox="0 0 248.32 75.29"><defs><style>.cls-1{fill:#ffd468;stroke:#000;stroke-miterlimit:10;stroke-width:8px;}.cls-2{fill:#ff2b06;}</style></defs><title>Fichier 75</title><g id="Calque_2" data-name="Calque 2"><g id="Calque_1-2" data-name="Calque 1"><polygon class="cls-1" points="229.68 71.29 4.86 71.29 17.98 4 243.42 4 229.68 71.29"/><path class="cls-2" d="M95,54.9c7.76-1.19,24.37-2.39,36.55-20-2.9,1.39-3.15,1.75-5,1.75,8.38-7.51,11.71-12.79,11.62-22.53-9.08,2.22-15.86,7.3-24.77,18.17,1.16-4.25,1-4.35,1.55-5.82-3.9,3.91-14.64,16.51-15.89,21-.59-4.4-1.47-5.59-.85-7.59-2.26,6.22,2.16,11.64-10.49,16C94.47,54.75,95,54.9,95,54.9Z"/><path d="M80.28,56.52c15.5-4.54,15.71-7.7,16-11.71a18.18,18.18,0,0,1,.9-5.29l2,.65a6,6,0,0,0,.19,3.29c0,.2.09.41.13.63,3.54-6,12-15.63,14.71-18.38l3.24-3.26-1.54,4.33a13.38,13.38,0,0,0-.42,1.41c7.82-8.88,14.17-13.09,22.43-15.11l1.26-.3v1.3c.09,8.94-2.81,14.31-8.57,20.1l.51-.24,3.47-1.66-2.18,3.17c-11.61,16.82-27.19,19-35.56,20.22l-1.68.25h-.33c-.32,0-1.72.11-14,2.59Zm16.23-2.89c7.49-1.06,21-3,31.77-16.18a7.12,7.12,0,0,1-1.81.19h-2.68l2-1.79c8.28-7.41,11.07-12.37,11.27-20.42-8.14,2.29-14.49,7.16-22.94,17.48l-3.05,3.73L112.33,32c.2-.73.36-1.34.49-1.85C108,35.49,100.91,44.35,100,47.73l-1.34,4.86L98,47.88a9.1,9.1,0,0,1-4,6c.42,0,.68-.05.86-.05Z"/><path d="M99,54.81c13.87-7.33,26.57-21.14,27.36-24.16C117.27,39.93,112.4,48.11,92,55.07"/></g></g></svg>