<?xml version="1.0" encoding="utf-8"?>
<!-- Generator: Adobe Illustrator 23.0.1, SVG Export Plug-In . SVG Version: 6.00 Build 0)  -->
<svg version="1.1" id="Calque_1" xmlns="http://www.w3.org/2000/svg" xmlns:xlink="http://www.w3.org/1999/xlink" x="0px" y="0px"
	 viewBox="0 0 841.89 595.28" style="enable-background:new 0 0 841.89 595.28;" xml:space="preserve">
<style type="text/css">
	.st0{fill:#3A4D9C;}
	.st1{fill:#FFD568;}
	.st2{fill:#020203;}
</style>
<rect x="390.73" y="195.09" class="st0" width="34.75" height="108.34"/>
<g>
	<g>
		<path class="st1" d="M412.9,278.28c3.96-8.64,13.82-26.27,4.07-50.36c-0.53,3.86-0.33,4.35-1.58,6.25
			c-2.02-13.49-5.15-20.38-15.07-26.78c-3.81,10.68-3.18,20.93,1.89,37.19c-3.53-4-3.72-3.94-4.86-5.45
			c1.36,6.56,6.96,25.83,10.7,30.11c-4.84-2.34-6.64-2.24-8.25-4.2c4.79,6.43,13.23,5.57,9.24,21.31
			C412.42,278.67,412.9,278.28,412.9,278.28z"/>
		<path class="st2" d="M404.76,294.21c5.74-18.72,2.67-21.04-1.21-23.99c-1.63-1.23-3.31-2.51-4.75-4.44l1.96-1.54
			c0.8,0.98,1.69,1.32,3.45,2c0.23,0.09,0.47,0.18,0.73,0.28c-3.75-7.59-7.85-22.53-8.81-27.14l-1.13-5.45l3.35,4.44
			c0.44,0.58,0.73,0.92,1.15,1.37c-3.78-13.83-3.81-23.08-0.35-32.78l0.53-1.48l1.32,0.85c9.11,5.88,12.62,12.39,14.65,22.09
			c0.03-0.22,0.06-0.45,0.09-0.69l0.64-4.62l1.75,4.32c9.3,22.97,1.16,40.21-3.21,49.48l-0.87,1.87l-0.21,0.34
			c-0.2,0.33-1.04,1.82-6.71,15.89L404.76,294.21z M412.65,275.86c3.92-8.3,10.97-23.24,4.78-42.96c-0.2,0.6-0.51,1.2-1.01,1.96
			l-1.79,2.71l-0.48-3.21c-1.99-13.33-5.15-19.46-13.17-25.02c-3.1,9.76-2.4,19.44,2.42,34.88l1.74,5.57l-3.86-4.37
			c-0.61-0.69-1.11-1.25-1.55-1.73c2.23,8.43,6.46,21.54,9.26,24.74l4.02,4.6l-5.19-2.5c1.85,1.79,3.31,4.11,3.48,8.04
			c0.24-0.45,0.4-0.72,0.52-0.9L412.65,275.86z"/>
	</g>
	<path class="st2" d="M415.48,274.15c1.82-18.93-3.7-41-6.23-43.8c3.36,15.35,8.4,25.73,1.87,51"/>
</g>
</svg>
