<svg xmlns="http://www.w3.org/2000/svg" viewBox="0 0 248.32 75.29"><defs><style>.cls-1{fill:#ffd468;stroke:#000;stroke-miterlimit:10;stroke-width:8px;}.cls-2{fill:#3b28fa;}.cls-3{fill:#ff2b06;}</style></defs><title>Fichier 65</title><g id="Calque_2" data-name="Calque 2"><g id="Calque_1-2" data-name="Calque 1"><polygon class="cls-1" points="229.68 71.29 4.86 71.29 17.98 4 243.42 4 229.68 71.29"/><path class="cls-2" d="M85.13,55.93c8.38-.65,26.22-.62,40.64-18.51-3.2,1.25-3.5,1.62-5.51,1.47,9.55-7.36,13.53-12.74,14.21-23.15-9.89,1.64-17.54,6.54-27.91,17.45,1.57-4.45,1.44-4.57,2.11-6.1C104.19,31,91.71,43.57,90,48.3c-.28-4.75-1.13-6.09-.31-8.18-2.9,6.46,1.39,12.61-12.48,16.3C84.62,55.73,85.13,55.93,85.13,55.93Z"/><path d="M69.32,56.49c16.92-3.61,17.4-7,18-11.24a19.57,19.57,0,0,1,1.39-5.58l2,.85c-.41,1-.29,1.88-.06,3.53,0,.22.06.44.09.68C95,38.57,104.8,29,108,26.26L111.67,23l-2,4.5a13.92,13.92,0,0,0-.56,1.47c9.06-8.87,16.19-12.86,25.17-14.36l1.37-.22-.09,1.38c-.62,9.57-4.15,15.07-10.76,20.81l.57-.23,3.84-1.49-2.59,3.21C112.89,55.17,96.07,56.29,87,56.9L85.21,57l-.35,0c-.34,0-1.85,0-15.16,1.65ZM86.89,54.7c8.09-.54,22.66-1.52,35.23-14.78a6.67,6.67,0,0,1-1.94.06l-2.86-.21L119.59,38c9.44-7.26,12.82-12.34,13.66-20.92-8.87,1.79-16,6.5-25.9,16.85l-3.55,3.74,1.72-4.86c.27-.77.49-1.4.67-1.94-5.55,5.35-13.86,14.25-15.13,17.79l-1.83,5.08-.29-5.08a9.75,9.75,0,0,1-4.72,6.14c.45,0,.73,0,.92,0Z"/><path d="M89.42,56.15c15.41-6.73,30.08-20.48,31.16-23.64C110.16,41.71,104.31,50.06,82,55.88"/><path class="cls-3" d="M139,56.9c7.76-1.19,24.37-2.39,36.55-20-2.9,1.39-3.15,1.75-5,1.75,8.38-7.51,11.71-12.79,11.62-22.53-9.08,2.22-15.86,7.3-24.77,18.17,1.16-4.25,1-4.35,1.55-5.82-3.9,3.91-14.64,16.51-15.89,21-.59-4.4-1.47-5.59-.85-7.59-2.26,6.22,2.16,11.64-10.49,16C138.47,56.75,139,56.9,139,56.9Z"/><path d="M124.28,58.52c15.5-4.54,15.71-7.7,16-11.71a18.18,18.18,0,0,1,.9-5.29l2,.65a6,6,0,0,0,.19,3.29c0,.2.09.41.13.63,3.54-6,12-15.63,14.71-18.38l3.24-3.26-1.54,4.33a13.38,13.38,0,0,0-.42,1.41c7.82-8.88,14.17-13.09,22.43-15.11l1.26-.3v1.3c.09,8.94-2.81,14.31-8.57,20.1l.51-.24,3.47-1.66-2.18,3.17c-11.61,16.82-27.19,19-35.56,20.22l-1.68.25h-.33c-.32,0-1.72.11-14,2.59Zm16.23-2.89c7.49-1.06,21-3,31.77-16.18a7.12,7.12,0,0,1-1.81.19h-2.68l2-1.79c8.28-7.41,11.07-12.37,11.27-20.42-8.14,2.29-14.49,7.16-22.94,17.48l-3.05,3.73L156.33,34c.2-.73.36-1.34.49-1.85C152,37.49,144.91,46.35,144,49.73l-1.34,4.86L142,49.88a9.1,9.1,0,0,1-4,6c.42,0,.68-.05.86-.05Z"/><path d="M143,56.81c13.87-7.33,26.57-21.14,27.36-24.16-9.06,9.28-13.93,17.46-34.3,24.42"/></g></g></svg>