<svg xmlns="http://www.w3.org/2000/svg" xmlns:xlink="http://www.w3.org/1999/xlink" viewBox="0 0 1366 796.1"><defs><style>.cls-1,.cls-11{fill:none;}.cls-2,.cls-4{fill:#29abe2;}.cls-3{fill:#fdcb4f;}.cls-10,.cls-11,.cls-4{stroke:#010101;stroke-miterlimit:10;}.cls-11,.cls-4{stroke-width:6px;}.cls-5{clip-path:url(#clip-path);}.cls-6{fill:#ffcc4d;}.cls-7{fill:#010100;}.cls-8{fill:#010101;}.cls-9{fill:#fdcb4e;}.cls-10{fill:#fff;stroke-width:5px;}</style><clipPath id="clip-path"><rect class="cls-1" y="25.1" width="1366" height="768"/></clipPath></defs><title>Fichier 26</title><g id="Calque_2" data-name="Calque 2"><g id="Calque_4" data-name="Calque 4"><rect class="cls-2" y="25.1" width="1366" height="768"/><rect class="cls-3" y="262.36" width="1366" height="530.74"/><path class="cls-4" d="M885.05,281.59C812,327.94,714.54,364.23,697,461.56s-46.55,161.65-123.92,169.9S422.2,730.41,417.4,793.1H775.25c-68.69-112.16-36.74-146.8-4.79-227.62S756.08,438.87,802.41,396.6s123.18-115,123.18-115Z"/><g class="cls-5"><rect class="cls-6" x="850.42" y="85.47" width="3.75" height="43.73"/><path d="M854.62,129.64H850V85h4.65Zm-3.76-.89h2.87V85.91h-2.87Z"/><rect x="851.85" y="85.47" width="0.89" height="43.73"/><polygon points="852.29 85.75 848.88 85.75 850.59 82.8 852.29 79.83 854 82.8 855.71 85.75 852.29 85.75"/><polygon class="cls-6" points="873.18 85.75 869.86 88.78 873.18 90.67 869.86 92.43 873.18 94.58 869.86 96.41 873.18 99.1 854.17 99.1 854.17 85.75 873.18 85.75"/><path d="M874.44,99.54H853.73V85.31h20.61l-3.73,3.39,3.5,2-3.37,1.78,3.31,2.14-3.4,1.87Zm-19.82-.89h17.31l-2.87-2.31,3.26-1.79L869,92.39l3.28-1.73-3.16-1.8L872,86.2H854.62Z"/><rect class="cls-6" x="901.82" y="60.56" width="3.75" height="43.73"/><path d="M906,104.74h-4.64V60.12H906Zm-3.75-.89h2.86V61h-2.86Z"/><rect x="903.25" y="60.56" width="0.89" height="43.73"/><polygon points="903.7 60.85 900.28 60.85 901.99 57.89 903.7 54.93 905.41 57.89 907.12 60.85 903.7 60.85"/><polygon class="cls-6" points="924.59 60.85 921.26 63.88 924.59 65.77 921.26 67.53 924.59 69.68 921.26 71.51 924.59 74.2 905.58 74.2 905.58 60.85 924.59 60.85"/><path d="M925.85,74.64H905.13V60.41h20.61L922,63.8l3.51,2-3.38,1.77,3.32,2.15-3.4,1.87ZM906,73.75h17.31l-2.87-2.31,3.26-1.79-3.34-2.16,3.28-1.73L920.51,64l2.93-2.66H906Z"/><rect class="cls-6" x="952.04" y="83.96" width="3.75" height="43.73"/><path d="M956.24,128.13H951.6V83.52h4.64Zm-3.75-.89h2.86V84.41h-2.86Z"/><rect x="953.48" y="83.96" width="0.89" height="43.73"/><polygon points="953.92 84.25 950.5 84.25 952.21 81.29 953.92 78.33 955.63 81.29 957.34 84.25 953.92 84.25"/><polygon class="cls-6" points="974.81 84.25 971.48 87.28 974.81 89.17 971.48 90.92 974.81 93.08 971.48 94.91 974.81 97.59 955.8 97.59 955.8 84.25 974.81 84.25"/><path d="M976.07,98H955.35V83.81H976l-3.72,3.38,3.5,2L972.36,91l3.32,2.15L972.28,95Zm-19.83-.89h17.31l-2.86-2.31,3.25-1.8-3.34-2.16,3.28-1.73-3.15-1.79,2.93-2.66H956.24Z"/><rect class="cls-3" x="879.36" y="106.14" width="48.28" height="8.81"/><path class="cls-7" d="M928.71,116H878.28v-11h50.43Zm-48.28-2.16h46.13v-6.65H880.43Z"/><rect class="cls-6" x="825.93" y="194.89" width="44.99" height="66.39"/><path class="cls-8" d="M872,262.36H824.86V193.81H872Zm-45-2.15h42.84V196H827Z"/><rect class="cls-6" x="935.73" y="194.89" width="44.99" height="66.39"/><path class="cls-8" d="M981.79,262.36H934.65V193.81h47.14Zm-45-2.15h42.84V196H936.8Z"/><rect class="cls-6" x="870.93" y="194.89" width="64.8" height="70.19"/><path class="cls-7" d="M936.8,266.15H869.85V193.81H936.8ZM872,264h62.65V196H872Z"/><rect class="cls-9" x="885.75" y="227.5" width="35.29" height="37.58"/><path d="M922.12,266.15H884.68V226.42h37.44ZM886.83,264H920V228.58H886.83Z"/><rect class="cls-9" x="836.4" y="235.67" width="24.05" height="25.61"/><path d="M861.53,262.36h-26.2V234.59h26.2Zm-24-2.15h21.9V236.75h-21.9Z"/><rect class="cls-3" x="882.74" y="114.95" width="41.62" height="79.94"/><path class="cls-7" d="M925.44,196H881.66V113.87h43.78Zm-41.63-2.15h39.47V116H883.81Z"/><rect class="cls-3" x="837.8" y="136.11" width="29.86" height="58.78"/><path class="cls-8" d="M868.73,196h-32V135h32Zm-29.86-2.15h27.71V137.19H838.87Z"/><rect class="cls-3" x="835.18" y="130.51" width="35.06" height="5.6"/><path class="cls-7" d="M871.32,137.19H834.1v-7.75h37.22ZM836.26,135h32.91v-3.44H836.26Z"/><polygon class="cls-3" points="866.27 119.51 866.27 125.01 858.47 125.01 858.47 119.51 846.76 119.51 846.76 125.01 838.95 125.01 838.95 119.51 830.9 119.51 830.9 130.51 872.98 130.51 872.98 119.51 866.27 119.51"/><path class="cls-7" d="M874.05,131.59H829.83V118.43H840v5.5h5.65v-5.5h13.86v5.5h5.65v-5.5h8.86ZM832,129.44H871.9v-8.85h-4.55v5.5h-10v-5.5h-9.56v5.5h-10v-5.5H832Z"/><polygon class="cls-3" points="922.48 95.14 922.48 100.64 912.17 100.64 912.17 95.14 896.7 95.14 896.7 100.64 886.39 100.64 886.39 95.14 875.76 95.14 875.76 106.14 931.34 106.14 931.34 95.14 922.48 95.14"/><path class="cls-7" d="M932.42,107.22H874.68V94.06h12.79v5.5h8.15v-5.5h17.62v5.5h8.16v-5.5h11Zm-55.59-2.15h53.43V96.21h-6.7v5.51H911.09V96.21H897.78v5.51H885.31V96.21h-8.48Z"/><rect class="cls-3" x="939.55" y="136.11" width="29.86" height="58.78"/><path class="cls-8" d="M970.48,196h-32V135h32Zm-29.86-2.15h27.71V137.19H940.62Z"/><rect class="cls-3" x="936.93" y="130.51" width="35.06" height="5.6"/><path class="cls-7" d="M973.07,137.19H935.86v-7.75h37.21ZM938,135h32.91v-3.44H938Z"/><polygon class="cls-3" points="968.02 119.51 968.02 125.01 960.22 125.01 960.22 119.51 948.51 119.51 948.51 125.01 940.7 125.01 940.7 119.51 932.65 119.51 932.65 130.51 974.73 130.51 974.73 119.51 968.02 119.51"/><path class="cls-7" d="M975.8,131.59H931.58V118.43h10.2v5.5h5.65v-5.5h13.86v5.5h5.65v-5.5h8.86Zm-42.07-2.15h39.92v-8.85H969.1v5.5h-10v-5.5h-9.56v5.5h-10v-5.5h-5.89Z"/><rect class="cls-3" x="855.68" y="272.22" width="96.21" height="8.29"/><path class="cls-7" d="M953,281.59H854.61V271.15H953Zm-96.21-2.16h94V273.3h-94Z"/><polygon class="cls-3" points="947.45 270.07 935.73 265.07 870.93 265.07 859.65 270.07 947.45 270.07"/><path class="cls-8" d="M952.72,271.15H854.56L870.92,264h65Zm-88-2.16h77.43l-6.66-2.84H871.15Z"/><line class="cls-3" x1="892.88" y1="114.95" x2="892.88" y2="194.89"/><rect class="cls-8" x="891.8" y="114.95" width="2.15" height="79.94"/><line class="cls-3" x1="898.22" y1="114.95" x2="898.22" y2="194.89"/><rect class="cls-8" x="897.14" y="114.95" width="2.15" height="79.94"/><line class="cls-3" x1="903.55" y1="114.95" x2="903.55" y2="194.89"/><rect class="cls-8" x="902.47" y="114.95" width="2.15" height="79.94"/><line class="cls-3" x1="908.88" y1="114.95" x2="908.88" y2="194.89"/><rect class="cls-8" x="907.8" y="114.95" width="2.15" height="79.94"/><line class="cls-3" x1="914.21" y1="114.95" x2="914.21" y2="194.89"/><rect class="cls-8" x="913.14" y="114.95" width="2.15" height="79.94"/><line class="cls-3" x1="882.74" y1="126.31" x2="924.36" y2="126.31"/><rect class="cls-8" x="882.74" y="125.24" width="41.62" height="2.15"/><line class="cls-3" x1="882.74" y1="132" x2="924.36" y2="132"/><rect class="cls-8" x="882.74" y="130.92" width="41.62" height="2.15"/><line class="cls-3" x1="882.74" y1="143.36" x2="924.36" y2="143.36"/><rect class="cls-8" x="882.74" y="142.28" width="41.62" height="2.15"/><line class="cls-3" x1="882.74" y1="149.04" x2="924.36" y2="149.04"/><rect class="cls-8" x="882.74" y="147.97" width="41.62" height="2.15"/><line class="cls-3" x1="882.74" y1="160.41" x2="924.36" y2="160.41"/><rect class="cls-8" x="882.74" y="159.33" width="41.62" height="2.15"/><line class="cls-3" x1="882.74" y1="166.09" x2="924.36" y2="166.09"/><rect class="cls-8" x="882.74" y="165.01" width="41.62" height="2.15"/><line class="cls-3" x1="882.74" y1="177.45" x2="924.36" y2="177.45"/><rect class="cls-8" x="882.74" y="176.38" width="41.62" height="2.15"/><line class="cls-3" x1="882.74" y1="183.14" x2="924.36" y2="183.14"/><rect class="cls-8" x="882.74" y="182.06" width="41.62" height="2.15"/><circle class="cls-3" cx="852.29" cy="160.41" r="9.73"/><path class="cls-7" d="M852.3,171.22a10.81,10.81,0,1,1,10.81-10.81A10.83,10.83,0,0,1,852.3,171.22Zm0-19.47a8.66,8.66,0,1,0,8.65,8.66A8.66,8.66,0,0,0,852.3,151.75Z"/><circle class="cls-7" cx="852.29" cy="160.41" r="6.88"/><circle class="cls-3" cx="955.35" cy="160.41" r="9.73"/><path class="cls-7" d="M955.35,171.22a10.81,10.81,0,1,1,10.81-10.81A10.82,10.82,0,0,1,955.35,171.22Zm0-19.47a8.66,8.66,0,1,0,8.66,8.66A8.67,8.67,0,0,0,955.35,151.75Z"/><circle class="cls-7" cx="955.35" cy="160.41" r="6.88"/><rect x="840.09" y="243.52" width="16.69" height="17.77"/><rect class="cls-9" x="946.2" y="235.67" width="24.05" height="25.61"/><path d="M971.33,262.36H945.12V234.59h26.21Zm-24.06-2.15h21.9V236.75h-21.9Z"/><rect x="949.88" y="243.52" width="16.69" height="17.77"/><rect x="894.98" y="227.5" width="16.69" height="37.58"/><rect class="cls-3" x="880.49" y="203.5" width="12.92" height="12.92"/><path class="cls-8" d="M894.48,217.5H879.41V202.43h15.07Zm-12.92-2.16h10.77V204.58H881.56Z"/><rect class="cls-8" x="883.41" y="206.43" width="7.07" height="7.07"/><rect class="cls-3" x="897.69" y="203.5" width="12.92" height="12.92"/><path class="cls-8" d="M911.68,217.5H896.61V202.43h15.07Zm-12.92-2.16h10.76V204.58H898.76Z"/><rect class="cls-8" x="900.61" y="206.43" width="7.07" height="7.07"/><rect class="cls-3" x="914.88" y="203.5" width="12.92" height="12.92"/><path class="cls-8" d="M928.88,217.5H913.81V202.43h15.07ZM916,215.34h10.76V204.58H916Z"/><rect class="cls-8" x="917.81" y="206.43" width="7.07" height="7.07"/><line x1="890.48" y1="227.5" x2="890.48" y2="265.07"/><rect class="cls-7" x="889.4" y="227.5" width="2.15" height="37.58"/><line x1="915.97" y1="227.5" x2="915.97" y2="265.07"/><rect class="cls-7" x="914.9" y="227.5" width="2.15" height="37.58"/><path class="cls-10" d="M781.23,106.78c0-13.74-14.06-24.88-31.42-24.88-10.83,0-20.38,4.34-26,10.94-5.65-6.6-15.19-10.94-26-10.94-15.84,0-28.93,9.27-31.1,21.33a39.34,39.34,0,0,0-9.33-1.11c-17.36,0-31.43,11.13-31.43,24.87s14.07,24.88,31.43,24.88a38.83,38.83,0,0,0,8.31-.89c4.92,8.66,15.9,14.7,28.67,14.7a36.8,36.8,0,0,0,19.44-5.34c5.7,6.29,15,10.39,25.54,10.39,13.52,0,25-6.76,29.47-16.24a38.54,38.54,0,0,0,12.47,2c17.36,0,31.43-11.14,31.43-24.88S798.59,106.78,781.23,106.78Z"/><path class="cls-10" d="M171.09,76.27c0-13.74-14.07-24.88-31.42-24.88-10.83,0-20.38,4.34-26,10.94-5.65-6.6-15.2-10.94-26-10.94-15.84,0-28.93,9.28-31.1,21.34a38.89,38.89,0,0,0-9.33-1.12c-17.36,0-31.43,11.14-31.43,24.88s14.07,24.87,31.43,24.87a39.56,39.56,0,0,0,8.31-.88c4.91,8.66,15.9,14.69,28.67,14.69a36.8,36.8,0,0,0,19.44-5.34c5.7,6.29,15,10.39,25.54,10.39,13.51,0,25-6.76,29.47-16.24a38.49,38.49,0,0,0,12.47,2c17.36,0,31.42-11.13,31.42-24.87S188.45,76.27,171.09,76.27Z"/><path class="cls-10" d="M520.9,27.38c0-13.74-14.07-24.88-31.42-24.88-10.83,0-20.38,4.34-26,10.94-5.65-6.6-15.2-10.94-26-10.94-15.83,0-28.92,9.27-31.1,21.33A39.34,39.34,0,0,0,397,22.72c-17.35,0-31.42,11.13-31.42,24.87S379.64,72.47,397,72.47a39.48,39.48,0,0,0,8.31-.89c4.92,8.66,15.9,14.69,28.67,14.69a36.79,36.79,0,0,0,19.44-5.33c5.7,6.29,15,10.39,25.54,10.39,13.52,0,25-6.76,29.48-16.24a38.45,38.45,0,0,0,12.47,2c17.35,0,31.42-11.14,31.42-24.88S538.25,27.38,520.9,27.38Z"/><path class="cls-10" d="M427.52,166.92c0-13.74-14.07-24.88-31.42-24.88-10.83,0-20.38,4.34-26,10.94-5.65-6.6-15.2-10.94-26-10.94-15.84,0-28.93,9.28-31.1,21.33a39.43,39.43,0,0,0-9.34-1.11c-17.35,0-31.42,11.14-31.42,24.87S286.26,212,303.61,212a38.93,38.93,0,0,0,8.32-.89c4.91,8.66,15.9,14.7,28.67,14.7A36.8,36.8,0,0,0,360,220.48c5.7,6.29,15,10.39,25.53,10.39,13.52,0,25.05-6.76,29.48-16.24a38.49,38.49,0,0,0,12.47,2c17.36,0,31.42-11.14,31.42-24.87S444.88,166.92,427.52,166.92Z"/><path class="cls-10" d="M1257.42,108.42c0-16.76-17.16-30.35-38.34-30.35-13.21,0-24.86,5.29-31.75,13.35-6.9-8.06-18.55-13.35-31.76-13.35-19.32,0-35.29,11.32-38,26a47.36,47.36,0,0,0-11.38-1.36c-21.18,0-38.34,13.59-38.34,30.35s17.16,30.35,38.34,30.35a47.89,47.89,0,0,0,10.14-1.08c6,10.57,19.4,17.93,35,17.93a44.94,44.94,0,0,0,23.72-6.51c7,7.67,18.32,12.68,31.16,12.68,16.5,0,30.56-8.25,36-19.82a46.91,46.91,0,0,0,15.21,2.49c21.18,0,38.35-13.59,38.35-30.35S1278.6,108.42,1257.42,108.42Z"/></g><line class="cls-11" y1="262.36" x2="1366" y2="262.36"/></g></g></svg>